<?xml version="1.0" standalone="no"?><!DOCTYPE svg PUBLIC "-//W3C//DTD SVG 1.1//EN" "http://www.w3.org/Graphics/SVG/1.1/DTD/svg11.dtd"><svg t="1594956012055" class="icon" viewBox="0 0 1024 1024" version="1.1" xmlns="http://www.w3.org/2000/svg" p-id="12844" xmlns:xlink="http://www.w3.org/1999/xlink" width="200" height="200"><defs><style type="text/css"></style></defs><path d="M821.333333 53.333333a85.333333 85.333333 0 0 1 85.333334 85.333334v368.533333A266.442667 266.442667 0 0 0 789.333333 480c-85.386667 0-161.397333 40.128-210.208 102.56h-30.613333v-62.08l0.448-0.128 0.458667-0.138667h73.354666l2.133334-0.064a42.666667 42.666667 0 0 0 40.469333-40.416l0.064-2.197333-0.053333-2.133333a42.666667 42.666667 0 0 0-40.426667-40.48l-2.186667-0.053334h-11.125333l84.992-147.2a42.666667 42.666667 0 0 0-72.714667-44.597333l-1.173333 1.92-109.642667 189.866667h-2.24l-109.610666-189.866667-1.184-1.92a42.666667 42.666667 0 0 0-55.104-14.773333l-1.994667 1.088-1.930667 1.173333a42.666667 42.666667 0 0 0-14.773333 55.114667l1.088 1.994666 84.981333 147.2h-35.733333l-2.122667 0.053334a42.666667 42.666667 0 0 0-40.48 40.426666l-0.053333 2.186667 0.053333 2.133333a42.666667 42.666667 0 0 0 40.416 40.48l2.197334 0.053334h86.549333v62.357333h-86.549333l-2.133334 0.053333a42.666667 42.666667 0 0 0-40.48 40.426667l-0.053333 2.186667 0.053333 2.133333a42.666667 42.666667 0 0 0 40.416 40.48l2.197334 0.053333h86.549333l0.010667 80.416 0.053333 2.133334a42.666667 42.666667 0 0 0 40.416 40.48l2.197333 0.053333 2.133334-0.053333a42.421333 42.421333 0 0 0 17.6-4.778667c10.794667 72.832 51.050667 136.053333 108.256 177.173333l-10.133334 7.968a42.666667 42.666667 0 0 1-50.837333 1.408l-1.888-1.408L515.872 928h-7.754667l-55.093333 43.285333a42.666667 42.666667 0 0 1-50.826667 1.408l-1.888-1.408L345.205333 928h-7.754666l-55.093334 43.285333a42.666667 42.666667 0 0 1-50.826666 1.408l-1.888-1.408-69.653334-54.698666A85.301333 85.301333 0 0 1 117.333333 842.666667V138.666667a85.333333 85.333333 0 0 1 85.333334-85.333334h618.666666z m-32 480a213.333333 213.333333 0 0 1 0 426.666667c-117.824 0-213.333333-95.509333-213.333333-213.333333s95.509333-213.333333 213.333333-213.333334z m69.696 106.976l-0.885333 0.746667-159.52 159.52a7.146667 7.146667 0 0 0-1.557333 2.346667l-0.298667 0.885333-12.128 46.090667a14.293333 14.293333 0 0 0 16.021333 17.76l1.44-0.298667 46.08-12.128a7.146667 7.146667 0 0 0 2.528-1.237333l0.714667-0.618667 159.52-159.52a7.146667 7.146667 0 0 0 0.746667-9.216l-0.746667-0.885333-42.698667-42.698667a7.146667 7.146667 0 0 0-9.216-0.746667z" p-id="12845"></path></svg>