<?xml version="1.0" standalone="no"?><!DOCTYPE svg PUBLIC "-//W3C//DTD SVG 1.1//EN" "http://www.w3.org/Graphics/SVG/1.1/DTD/svg11.dtd"><svg t="1594955949156" class="icon" viewBox="0 0 1024 1024" version="1.1" xmlns="http://www.w3.org/2000/svg" p-id="9862" xmlns:xlink="http://www.w3.org/1999/xlink" width="200" height="200"><defs><style type="text/css"></style></defs><path d="M198.574382 1013.240919L33.578887 827.730691c0.658227 0-14.663828-17.808689 0-29.473929 9.068901-7.679312 78.29241-71.96612 207.816799-193.043266 6.91138-6.435994 14.62726-11.884649 23.037935-16.199691a58.509041 58.509041 0 0 1 26.804454-6.582267h304.429853s51.890206 4.168769 51.195411 52.292455c-0.658227 30.168724-19.234847 57.667973-50.537184 64.579354-27.901499 4.75386-93.797306 10.239082-140.97022 13.713056-17.296735 1.353022 0 13.018262 0 13.018262l44.174326 32.399381c11.445831 8.410675 25.30516 12.945125 39.53017 12.981694h170.773263c14.480988 0 28.559726-4.717291 40.151829-13.383944 42.784736-31.814291 84.947814-64.433081 126.452665-97.892938 92.517421-68.748123 127.695982 0 127.695981 0s11.336127 24.683502-0.658226 38.396558c-32.435949 30.534406-108.424566 100.928095-227.746442 211.363909a66.407761 66.407761 0 0 1-30.314996 15.980282l1.608998 0.146273c-9.909969 2.267225-20.112483 3.36427-30.278428 3.36427-117.530036-0.548522-235.060071-0.511954-352.590107 0.036568-28.523157 0-48.525936 19.271415-48.525936 19.271415s-57.850814 52.219319-71.892984 64.542786c-29.217952 24.793206-45.161666 0-45.161666 0zM796.390506 293.543149c-90.469604 104.694615-262.303344 252.68592-269.580405 258.975642a27.097 27.097 0 0 1-17.625849 6.435994h-0.475386a27.097 27.097 0 0 1-17.625848-6.435994c-7.31363-6.216586-178.818256-153.988482-269.324429-258.683097a25.049183 25.049183 0 0 1-1.718703-2.120953C156.996395 209.728948 176.121538 94.868387 262.714918 35.189166a201.380805 201.380805 0 0 1 114.27547-35.141993 189.898406 189.898406 0 0 1 131.901319 51.451388A189.934974 189.934974 0 0 1 640.902731 0.010605c107.071545-0.073136 193.994038 82.022362 194.103742 183.462411a177.172689 177.172689 0 0 1-38.615967 110.070133z" p-id="9863"></path></svg>