<?xml version="1.0" standalone="no"?><!DOCTYPE svg PUBLIC "-//W3C//DTD SVG 1.1//EN" "http://www.w3.org/Graphics/SVG/1.1/DTD/svg11.dtd"><svg t="1594886394564" class="icon" viewBox="0 0 1024 1024" version="1.1" xmlns="http://www.w3.org/2000/svg" p-id="4930" xmlns:xlink="http://www.w3.org/1999/xlink" width="200" height="200"><defs><style type="text/css"></style></defs><path d="M510.922105 485.052632q-88.387368 21.018947-88.387368 91.082105a81.381053 81.381053 0 0 0 91.082105 84.075789q88.387368 0 91.082105-81.381052T510.922105 485.052632z m4.850527-72.218948q81.381053-21.018947 81.381052-81.381052T513.077895 260.311579a73.296842 73.296842 0 0 0-79.225263 72.218947q0 60.362105 81.381052 81.381053zM512 0A512 512 0 1 0 1024 512 512 512 0 0 0 512 0z m0 717.338947q-186.475789 0-188.631579-140.126315a129.886316 129.886316 0 0 1 107.789474-128.269474 125.574737 125.574737 0 0 1-95.393684-116.412632q14.012632-128.269474 179.469473-135.275789 165.456842 7.006316 179.469474 135.275789 0 84.075789-107.789474 116.412632a127.191579 127.191579 0 0 1 116.412632 126.113684q-2.694737 139.587368-190.248421 142.282105z" p-id="4931"></path></svg>