<?xml version="1.0" standalone="no"?><!DOCTYPE svg PUBLIC "-//W3C//DTD SVG 1.1//EN" "http://www.w3.org/Graphics/SVG/1.1/DTD/svg11.dtd"><svg t="1594953977689" class="icon" viewBox="0 0 1282 1024" version="1.1" xmlns="http://www.w3.org/2000/svg" p-id="2882" xmlns:xlink="http://www.w3.org/1999/xlink" width="250.390625" height="200"><defs><style type="text/css"></style></defs><path d="M212.366222 537.770667a75.662222 75.662222 0 0 0-75.605333 74.808889 76.231111 76.231111 0 0 0 75.889778 76.515555c41.585778 0 75.548444-33.962667 75.662222-75.662222a74.865778 74.865778 0 0 0-21.902222-53.361778 75.776 75.776 0 0 0-54.044445-22.300444z m0.056889 107.406222a32.028444 32.028444 0 0 1-31.744-32.199111 31.630222 31.630222 0 0 1 31.687111-31.232V559.786667v21.959111c8.760889 0 16.896 3.413333 22.869334 9.386666 5.916444 5.916444 9.102222 13.767111 9.102222 22.243556a32.199111 32.199111 0 0 1-31.914667 31.800889z" fill="" p-id="2883"></path><path d="M958.805333 704.284444c0-47.217778-5.745778-206.791111-5.973333-213.048888-0.512-38.627556-27.534222-66.901333-50.574222-79.303112l-4.835556-2.56c-12.401778-6.485333-21.617778-11.434667-28.558222-15.189333 22.812444-10.353778 35.783111-17.863111 37.546667-18.944a21.959111 21.959111 0 0 0-22.300445-37.831111 419.896889 419.896889 0 0 1-41.642666 20.252444c-5.688889-16.327111-11.491556-34.702222-17.009778-52.736-10.524444-34.076444-21.390222-69.233778-32.711111-93.297777-21.162667-45.226667-58.709333-69.176889-108.430223-69.290667l-102.798222-0.056889H448.910222c-42.097778 0-84.138667 0-126.577778-0.113778-52.736 0-90.680889 24.177778-112.696888 71.907556-13.994667 30.151111-36.864 98.759111-51.996445 144.099555l-1.194667 3.413334a542.663111 542.663111 0 0 1-40.96-16.952889 21.959111 21.959111 0 0 0-19.171555 39.537778c1.820444 0.853333 13.653333 6.542222 33.962667 14.563555-22.698667 11.093333-52.849778 27.022222-60.928 37.091556-10.126222 12.515556-16.042667 25.201778-19.171556 41.016889-2.958222 15.189333-11.150222 195.584-11.150222 234.040889 0 74.069333 46.478222 110.762667 82.716444 124.472888a108.202667 108.202667 0 0 0-0.341333 8.362667c0.056889 64.227556 49.095111 116.565333 109.169778 116.736h0.170666c61.383111 0 113.322667-53.361778 113.436445-116.565333l315.619555-0.398222v1.308444c0.170667 55.694222 36.977778 115.598222 117.361778 115.598222 55.921778 0 92.387556-39.480889 102.798222-76.629333 5.973333-16.384 6.371556-32.881778 6.144-47.957333 32.199111-13.027556 72.704-50.346667 72.704-131.527112zM199.281778 372.053333c14.848-44.430222 37.205333-111.616 50.119111-139.491555 14.677333-31.687111 37.831111-46.421333 73.159111-46.421334l126.350222 0.056889h132.608l102.741334 0.056889c32.824889 0 54.670222 13.994667 68.721777 44.032 10.069333 21.276444 20.423111 54.954667 30.549334 87.552 5.916444 19.000889 11.889778 38.456889 17.976889 55.978667a888.32 888.32 0 0 1-300.885334 51.541333c-124.472889 0-232.903111-26.567111-302.705778-49.208889l1.365334-4.096z m100.920889 471.779556c-0.056889 38.684444-32.540444 72.647111-69.518223 72.647111v22.016l-0.056888-22.016c-36.010667-0.056889-65.308444-32.768-65.365334-72.874667l0.056889-2.218666h134.940445v2.446222z m538.282666 25.429333a62.577778 62.577778 0 0 1-61.326222 47.217778c-54.044444 0-73.386667-38.684444-73.443555-71.850667v-3.242666h138.524444c0 10.183111-0.625778 19.740444-3.754667 27.875555z m23.495111-71.793778H147.911111c-11.719111-2.616889-64.967111-18.033778-64.967111-86.528 0-40.561778 8.192-211.683556 10.353778-225.507555a45.454222 45.454222 0 0 1 9.386666-20.992c8.135111-7.509333 60.017778-33.166222 68.209778-36.352a21.788444 21.788444 0 0 0 12.288-10.296889c72.760889 23.836444 185.685333 51.484444 317.44 51.484444 138.012444 0 247.694222-28.899556 318.122667-54.670222 4.608 5.006222 16.213333 11.605333 58.254222 33.678222l4.323556 2.275556c10.126222 5.461333 27.249778 20.309333 27.534222 41.756444 0 1.649778 5.916444 165.546667 5.916444 212.081778 0.113778 78.506667-44.088889 91.249778-52.792889 93.070222z" fill="" p-id="2884"></path><path d="M376.376889 237.397333a21.959111 21.959111 0 0 0-31.061333 0L285.923556 296.732444a22.016 22.016 0 0 0 15.587555 37.489778 21.788444 21.788444 0 0 0 15.473778-6.428444l59.335111-59.335111a22.016 22.016 0 0 0 0.056889-31.061334zM516.551111 212.48a21.902222 21.902222 0 0 0-31.004444 0.170667L371.256889 328.248889a22.016 22.016 0 0 0 31.288889 30.890667l114.232889-115.598223a22.016 22.016 0 0 0-0.227556-31.061333zM787.000889 537.770667c-20.593778 0-39.822222 8.078222-54.272 22.584889a74.069333 74.069333 0 0 0-21.674667 53.475555 76.231111 76.231111 0 0 0 75.832889 75.320889 75.889778 75.889778 0 0 0 75.548445-76.288 74.581333 74.581333 0 0 0-75.434667-75.093333z m22.129778 98.360889a31.345778 31.345778 0 0 1-22.300445 9.159111 32.483556 32.483556 0 0 1-31.857778-31.914667 30.549333 30.549333 0 0 1 8.931556-22.129778 32.312889 32.312889 0 0 1 23.04-9.557333c17.635556 0 31.459556 13.767111 31.516444 31.345778a32.597333 32.597333 0 0 1-9.329777 23.096889zM582.826667 660.195556H408.348444a21.959111 21.959111 0 0 0 0 43.975111h174.478223a22.016 22.016 0 1 0 0-43.975111z" fill="" p-id="2885"></path></svg>