<?xml version="1.0" standalone="no"?><!DOCTYPE svg PUBLIC "-//W3C//DTD SVG 1.1//EN" "http://www.w3.org/Graphics/SVG/1.1/DTD/svg11.dtd"><svg t="1594954447947" class="icon" viewBox="0 0 1024 1024" version="1.1" xmlns="http://www.w3.org/2000/svg" p-id="3497" xmlns:xlink="http://www.w3.org/1999/xlink" width="200" height="200"><defs><style type="text/css"></style></defs><path d="M524.172 576.175c0-1.267 0.031-2.527 0.077-3.782h-23.267a128.464 128.464 0 0 0-0.062 3.782c0 68.306 54.44 123.893 122.298 125.749v-23.267c-55.014-1.847-99.046-47.019-99.046-102.482z" fill="" p-id="3498"></path><path d="M523.894 576.175c0-1.266-0.024-2.526-0.062-3.782h-23.267c0.046 1.256 0.077 2.515 0.077 3.782 0 55.513-44.111 100.717-99.194 102.487v23.267c67.927-1.777 122.446-57.398 122.446-125.754z" fill="" p-id="3499"></path><path d="M923.438 504.5L816.305 305.757c-27.945-70.609-96.728-120.722-177.133-120.722H378.483c-86.303 0-159.28 57.698-182.63 136.539L97.229 504.5c-17.452 32.4-21.262 69.636-10.7 104.888 10.544 35.235 34.209 64.257 66.591 81.727 13.223 7.118 27.578 11.799 42.299 14.303 22.811 79.692 96.153 138.244 183.066 138.244h260.689c86.705 0 159.923-58.255 182.926-137.636 15.817-2.332 31.285-7.272 45.449-14.911 32.398-17.47 56.046-46.492 66.589-81.727 10.561-35.252 6.751-72.488-10.7-104.888zM166.784 654.833c-22.364-12.062-38.697-32.097-45.973-56.436-7.295-24.32-4.662-50.031 7.383-72.411l52.485-97.339V656.22c0 1.566 0.196 3.06 0.23 4.609-4.838-1.637-9.589-3.559-14.125-5.996z m620.519-0.563c0 81.086-65.977 147.046-147.062 147.046H377.348c-81.085 0-147.045-65.96-147.045-147.046V374.427c0-81.102 65.96-147.062 147.045-147.062H640.24c81.085 0 147.062 65.96 147.062 147.062V654.27h0.001z m112.555-55.874c-7.278 24.339-23.61 44.374-45.975 56.436-5.498 2.952-11.316 5.23-17.239 7.028 0.053-1.904 0.283-3.736 0.283-5.64V422.935l55.547 103.05c12.045 22.381 14.678 48.092 7.384 72.411zM332.239 390.22c-23.295 0-42.173 18.877-42.173 42.155 0 23.295 18.878 42.172 42.173 42.172 23.278 0 42.155-18.877 42.155-42.172 0.001-23.278-18.877-42.155-42.155-42.155z m353.127 0c-23.294 0-42.172 18.877-42.172 42.155 0 23.295 18.878 42.172 42.172 42.172 23.277 0 42.154-18.877 42.154-42.172 0-23.278-18.877-42.155-42.154-42.155z" fill="" p-id="3500"></path><path d="M512.381 571.115m-37.557 0a37.557 37.557 0 1 0 75.114 0 37.557 37.557 0 1 0-75.114 0Z" fill="" p-id="3501"></path><path d="M622.807 690.23m-11.7 0a11.7 11.7 0 1 0 23.4 0 11.7 11.7 0 1 0-23.4 0Z" fill="" p-id="3502"></path><path d="M401.038 690.23m-11.7 0a11.7 11.7 0 1 0 23.4 0 11.7 11.7 0 1 0-23.4 0Z" fill="" p-id="3503"></path><path d="M498.764 556.99h26.086v23.748h-26.086z" fill="" p-id="3504"></path></svg>