<?xml version="1.0" standalone="no"?><!DOCTYPE svg PUBLIC "-//W3C//DTD SVG 1.1//EN" "http://www.w3.org/Graphics/SVG/1.1/DTD/svg11.dtd"><svg t="1594718171199" class="icon" viewBox="0 0 1193 1024" version="1.1" xmlns="http://www.w3.org/2000/svg" p-id="3503" xmlns:xlink="http://www.w3.org/1999/xlink" width="233.0078125" height="200"><defs><style type="text/css"></style></defs><path d="M1169.653917 244.680286L948.398106 23.408614A79.630523 79.630523 0 0 0 885.737242 0.285471C883.532772 0.095157 881.39174 0 879.298287 0H761.414662l-8.262797 4.599253c-43.677049 24.296746-99.391454 37.6663-156.897982 37.666301S483.001231 28.896 439.308323 4.630972l-8.262797-4.599253h-117.867765a80.312482 80.312482 0 0 0-71.050537 42.440008L23.408932 261.158301A79.40849 79.40849 0 0 0 0.000317 317.68154a79.40849 79.40849 0 0 0 23.408615 56.475661l159.800269 159.847848a79.297474 79.297474 0 0 0 49.259591 23.075565v386.210417a80.788266 80.788266 0 0 0 80.693109 80.708969h566.183964a80.788266 80.788266 0 0 0 80.708969-80.708969V540.681896a79.297474 79.297474 0 0 0 49.782954-23.154862l159.816129-159.80027a80.027011 80.027011 0 0 0 0-113.046478z" p-id="3504"></path></svg>