<?xml version="1.0" standalone="no"?><!DOCTYPE svg PUBLIC "-//W3C//DTD SVG 1.1//EN" "http://www.w3.org/Graphics/SVG/1.1/DTD/svg11.dtd"><svg t="1594955967712" class="icon" viewBox="0 0 1080 1024" version="1.1" xmlns="http://www.w3.org/2000/svg" p-id="11259" xmlns:xlink="http://www.w3.org/1999/xlink" width="210.9375" height="200"><defs><style type="text/css"></style></defs><path d="M947.541333 515.413333H246.954667c-51.2 0-91.619556-40.419556-91.619556-86.243555v-21.532445c0-16.184889 10.780444-26.965333 26.936889-26.965333 16.184889 0 26.965333 10.808889 26.965333 26.965333v21.532445c0 18.887111 16.156444 32.341333 37.717334 32.341333h700.586666c21.560889 0 37.745778-16.156444 37.745778-32.341333V95.032889c-2.702222-16.156444-18.858667-32.312889-37.745778-32.312889H246.954667c-21.560889 0-37.717333 16.156444-37.717334 32.312889v35.043555c0 16.156444-10.808889 26.936889-26.965333 26.936889s-26.936889-10.780444-26.936889-26.936889V95.032889C155.306667 49.237333 195.697778 8.817778 246.897778 8.817778h700.615111c51.2 0 91.619556 37.717333 91.619555 86.215111v331.463111c-2.673778 51.2-43.093333 88.917333-91.591111 88.917333zM182.272 332.174222c-16.156444 0-26.936889-10.780444-26.936889-26.936889V245.959111c0-16.184889 10.780444-26.965333 26.936889-26.965333 16.184889 0 26.965333 10.808889 26.965333 26.965333v59.278222c0 16.156444-10.808889 26.936889-26.965333 26.936889zM263.111111 170.496H117.617778c-16.184889 0-26.965333-10.780444-26.965334-26.936889 0-16.184889 10.808889-26.965333 26.965334-26.965333h142.791111c16.184889 0 26.965333 10.808889 26.965333 26.965333s-10.808889 26.936889-24.263111 26.936889z m-16.156444 161.678222h-159.004445c-16.156444 0-26.936889-10.780444-26.936889-26.936889 0-16.184889 10.808889-26.965333 26.965334-26.965333h158.976c16.156444 0 26.936889 10.808889 26.936889 26.965333a27.022222 27.022222 0 0 1-26.936889 26.936889z m-169.756445-107.804444H39.452444C23.324444 224.398222 12.515556 213.617778 12.515556 197.461333c0-16.156444 10.780444-26.936889 26.936888-26.936889h37.745778c16.156444 0 26.936889 10.780444 26.936889 26.936889 0 16.184889-10.780444 26.965333-26.936889 26.965334z m520.049778 16.213333c-8.078222 0-13.482667-2.730667-18.858667-8.106667L502.926222 157.013333a26.055111 26.055111 0 0 1 0-37.717333 26.055111 26.055111 0 0 1 37.745778 0l56.604444 56.604444 59.249778-59.306666a26.055111 26.055111 0 0 1 37.745778 0 26.055111 26.055111 0 0 1 0 37.745778L616.106667 235.178667c-2.673778 2.673778-10.780444 5.404444-18.858667 5.404444z m91.619556 10.752h-177.834667c-16.184889 0-26.965333-10.780444-26.965333-26.936889 0-16.184889 10.808889-26.965333 26.965333-26.965333h177.834667c16.156444 0 26.936889 10.808889 26.936888 26.965333s-10.780444 26.936889-26.936888 26.936889z m0 80.839111h-177.834667c-16.184889 0-26.965333-10.780444-26.965333-26.936889 0-16.184889 10.808889-26.965333 26.965333-26.965333h177.834667c16.156444 0 26.936889 10.808889 26.936888 26.965333s-10.780444 26.936889-26.936888 26.936889z m-88.917334 78.136889c-16.184889 0-26.936889-10.780444-26.936889-26.936889v-159.004444c0-16.156444 10.752-26.936889 26.936889-26.936889 16.156444 0 26.936889 10.808889 26.936889 26.965333v158.976c0 16.156444-10.780444 26.936889-26.936889 26.936889z m18.858667 608.995556c-24.263111 0-43.121778-5.404444-43.121778-5.404445L144.554667 900.778667c-10.780444-2.702222-18.858667-13.482667-18.858667-26.965334v-226.332444c0-16.184889 10.780444-26.965333 26.936889-26.965333h490.439111c96.995556 0 107.776 53.902222 107.776 75.463111 0 53.902222-40.419556 80.839111-67.356444 88.917333h-5.404445l-175.160889 16.184889a29.297778 29.297778 0 0 1-29.639111-24.263111c-2.673778-13.482667 10.808889-26.936889 24.263111-29.639111l172.458667-10.780445c8.078222-2.702222 26.936889-13.482667 26.936889-37.717333 0-13.482667-18.858667-21.560889-53.873778-21.560889H176.867556v177.834667l409.6 107.804444s53.902222 13.454222 88.917333-13.482667c48.526222-32.341333 309.902222-188.615111 320.682667-193.991111 0 0 29.639111-21.589333 18.858666-48.526222-2.702222-10.780444-8.078222-10.780444-8.078222-10.780444-13.482667-5.404444-43.121778 5.404444-70.058667 13.482666-16.184889 5.404444-35.043556 13.454222-56.604444 21.560889-13.482667 5.376-29.639111-2.702222-35.015111-16.184889-5.404444-13.482667 2.673778-29.639111 16.156444-35.015111a782.933333 782.933333 0 0 1 56.604445-21.560889c37.717333-13.482667 78.136889-26.965333 110.449777-10.808889 16.184889 8.106667 29.667556 21.589333 35.043556 43.150223 18.858667 53.873778-18.858667 94.293333-43.121778 110.478222-2.673778 2.673778-272.156444 161.678222-317.952 193.991111-24.263111 21.560889-59.278222 24.263111-83.541333 24.263111z" p-id="11260"></path></svg>