<?xml version="1.0" standalone="no"?><!DOCTYPE svg PUBLIC "-//W3C//DTD SVG 1.1//EN" "http://www.w3.org/Graphics/SVG/1.1/DTD/svg11.dtd"><svg t="1594881492061" class="icon" viewBox="0 0 1037 1024" version="1.1" xmlns="http://www.w3.org/2000/svg" p-id="2063" xmlns:xlink="http://www.w3.org/1999/xlink" width="202.5390625" height="200"><defs><style type="text/css"></style></defs><path d="M971.202092 134.170263H524.378239L186.442446 4.156785l-0.425344-0.162035a65.897935 65.897935 0 0 0-88.491803 61.907804v68.267709h-31.596982a65.968826 65.968826 0 0 0-65.928317 65.91819v757.517377a65.968826 65.968826 0 0 0 65.928317 65.928317H544.571951l1.124123 0.465853v-0.465853h425.506018a65.968826 65.968826 0 0 0 65.827045-65.928317v-757.517377a65.968826 65.968826 0 0 0-65.827045-65.91819z m-821.318974-68.267709a13.246427 13.246427 0 0 1 5.782652-11.139962 13.165409 13.165409 0 0 1 12.243831-1.681121l325.438782 125.243548v767.128126L158.217834 805.808665a13.509735 13.509735 0 0 1-8.334716-12.497012z m-83.954801 905.283902a13.560371 13.560371 0 0 1-13.540116-13.580626v-757.517377a13.560371 13.560371 0 0 1 13.540116-13.560372h31.596982v606.783572a65.715645 65.715645 0 0 0 40.508951 60.82419l280.909318 117.050613z m918.78351-13.580626a13.560371 13.560371 0 0 1-13.509735 13.580626H545.696074v-784.658375h425.506018a13.560371 13.560371 0 0 1 13.509735 13.560372z" fill="" p-id="2064"></path></svg>