<?xml version="1.0" standalone="no"?><!DOCTYPE svg PUBLIC "-//W3C//DTD SVG 1.1//EN" "http://www.w3.org/Graphics/SVG/1.1/DTD/svg11.dtd"><svg t="1594884800133" class="icon" viewBox="0 0 1024 1024" version="1.1" xmlns="http://www.w3.org/2000/svg" p-id="13738" xmlns:xlink="http://www.w3.org/1999/xlink" width="200" height="200"><defs><style type="text/css"></style></defs><path d="M884.266667 764.8H161.066667c-48 0-86.4-38.4-86.4-86.4V252.8c0-48 38.4-86.4 86.4-86.4h723.2c48 0 86.4 38.4 86.4 86.4v425.6c0 48-39.466667 86.4-86.4 86.4zM161.066667 216.533333c-20.266667 0-36.266667 16-36.266667 36.266667v425.6c0 20.266667 16 36.266667 36.266667 36.266667h723.2c20.266667 0 36.266667-16 36.266666-36.266667V252.8c0-20.266667-16-36.266667-36.266666-36.266667H161.066667z" fill="#666666" p-id="13739"></path><path d="M89.6 593.066667h866.133333v71.466666H89.6zM516.266667 894.933333c-74.666667 0-133.333333-40.533333-133.333334-91.733333 0-49.066667 50.133333-78.933333 133.333334-78.933333s133.333333 29.866667 133.333333 78.933333c0 52.266667-58.666667 91.733333-133.333333 91.733333z m0-120.533333c-46.933333 0-83.2 12.8-83.2 28.8 0 19.2 35.2 41.6 83.2 41.6s83.2-22.4 83.2-41.6c0-16-35.2-28.8-83.2-28.8z" fill="#666666" p-id="13740"></path><path d="M732.8 907.733333H299.733333c-24.533333 0-44.8-17.066667-44.8-38.4s20.266667-38.4 44.8-38.4h434.133334c24.533333 0 44.8 17.066667 44.8 38.4s-20.266667 38.4-45.866667 38.4z" fill="#666666" p-id="13741"></path></svg>