<?xml version="1.0" standalone="no"?><!DOCTYPE svg PUBLIC "-//W3C//DTD SVG 1.1//EN" "http://www.w3.org/Graphics/SVG/1.1/DTD/svg11.dtd"><svg t="1594954011434" class="icon" viewBox="0 0 1024 1024" version="1.1" xmlns="http://www.w3.org/2000/svg" p-id="4501" xmlns:xlink="http://www.w3.org/1999/xlink" width="200" height="200"><defs><style type="text/css"></style></defs><path d="M310.192 813.872a16 16 0 0 1-13.216-25.008L442.272 576H230.192l-92.88 66.352a16 16 0 1 1-24.016-19.296l45.728-107.232-45.792-110.976a16 16 0 0 1 23.728-19.392L229.936 448h212.48l-145.472-215.024A16 16 0 0 1 310.192 208h111.584c5.312 0 10.272 2.64 13.248 7.024L592.64 448h238.288C867.408 448 896 476.112 896 512s-28.592 64-65.072 64H592.592l-157.424 229.808a16.016 16.016 0 0 1-13.04 6.96l-111.76 1.104h-0.176zM225.056 544h247.504a15.984 15.984 0 0 1 13.216 25.008l-145.088 212.56 72.768-0.736 157.488-229.888c2.992-4.336 7.92-6.944 13.2-6.944h246.784C849.776 544 864 530.256 864 512s-14.224-32-33.072-32H584.144c-5.312 0-10.272-2.64-13.248-7.024L413.296 240h-72.96l145.472 215.024A16 16 0 0 1 472.56 480H225.056c-3.184 0-6.288-0.96-8.928-2.72l-53.168-35.744 28.176 68.288a16 16 0 0 1-0.064 12.384l-26 61.008 50.688-36.224a15.936 15.936 0 0 1 9.296-2.992z" p-id="4502"></path></svg>