<?xml version="1.0" standalone="no"?><!DOCTYPE svg PUBLIC "-//W3C//DTD SVG 1.1//EN" "http://www.w3.org/Graphics/SVG/1.1/DTD/svg11.dtd"><svg t="1594955894651" class="icon" viewBox="0 0 1024 1024" version="1.1" xmlns="http://www.w3.org/2000/svg" p-id="8402" xmlns:xlink="http://www.w3.org/1999/xlink" width="200" height="200"><defs><style type="text/css"></style></defs><path d="M780.8 237.2h85.7c48.8 0 88.5-39.9 88.5-88.9s-39.7-88.9-88.5-88.9h-85.7c-48.8 0-88.5 39.9-88.5 88.9s39.6 88.9 88.5 88.9z m0-129.1h85.7c22 0 39.9 18 39.9 40.1s-17.9 40.1-39.9 40.1h-85.7c-22 0-39.9-18-39.9-40.1s17.8-40.1 39.9-40.1zM523.7 366.3h85.7c48.8 0 88.5-39.9 88.5-88.9s-39.7-89-88.5-89h-85.7c-48.8 0-88.5 39.9-88.5 88.9s39.7 89 88.5 89z m0-129.1h85.7c22 0 39.9 18 39.9 40.1s-17.9 40.1-39.9 40.1h-85.7c-22 0-39.9-18-39.9-40.1s17.9-40.1 39.9-40.1z m214.2 165.1c-48.8 0-88.5 39.9-88.5 88.9 0 49 39.7 88.9 88.5 88.9h85.7c48.8 0 88.5-39.9 88.5-88.9s-39.7-88.9-88.5-88.9h-85.7z m125.7 88.9c0 22.1-17.9 40.1-39.9 40.1H738c-22 0-39.9-18-39.9-40.1s17.9-40.1 39.9-40.1h85.7c21.9 0 39.9 18 39.9 40.1z m8.2 154.5c-21.4 0-91 28.2-154.2 56-17.5-66.5-27.3-76.3-30.7-79.8-15.1-15.3-269.8-155.1-338.5-155.1-62.4 0-310.2 58.5-320.7 61C16.8 530.4 9 540.2 9 551.6V778c0 13.5 10.9 24.4 24.3 24.4h198.2c38.1 22 248.2 140.3 379.2 163.3 1.4 0.2 2.8 0.4 4.2 0.4 48 0 312.1-115 395.4-207.1 4.1-4.5 6.3-10.4 6.3-16.4 0-64.3-48.8-96.9-144.8-96.9zM616.3 917.1C483 892.5 252.5 758.3 250.1 756.9c-3.7-2.2-8-3.3-12.2-3.3H57.6V570.9c80.9-18.7 247.3-55.3 290.9-55.3 48.2 0 272.8 119.6 303.5 140.6 4.7 9 13.3 37.6 20.6 65.6-11.6 5.2-22.3 10.2-31.8 14.5L507 649.5c-3.9-2.5-8.5-3.9-13.1-3.9H435c-13.4 0.3-24 11.5-23.7 25 0.3 13 10.8 23.5 23.7 23.8h51.8l139 90.3c7.1 4.6 15.8 5.1 23.4 1.7 92.5-43.1 204-90.5 222.8-91.8 60.1 0 90.2 12.1 95.4 39-81.2 80-312.9 179.4-351.1 183.5z" p-id="8403"></path><path d="M614.8 968.1c-1.5 0-3-0.2-4.5-0.4-55.6-9.8-131.3-37.4-225-82.2-74.6-35.6-136.5-70.7-154.5-81.1H33.3C18.8 804.4 7 792.6 7 778V551.6c0-12.3 8.3-22.9 20.3-25.7 10.5-2.5 258.5-61.1 321.2-61.1 69 0 324.7 140.3 339.9 155.7l0.1 0.1c3.7 3.8 13.3 13.8 30.5 78.4 57.9-25.4 130.6-55.2 152.9-55.2 57.9 0 99.3 12 122.9 35.6 15.8 15.9 23.9 37.2 23.8 63.3 0 6.6-2.4 12.9-6.8 17.7-83.7 92.3-348.8 207.7-397 207.7zM348.4 468.8c-62.2 0-309.8 58.5-320.3 60.9-10 2.4-17.1 11.4-17.1 21.9V778c0 12.4 10 22.4 22.3 22.4H232l0.5 0.3c17.3 10 79.6 45.3 154.7 81.2 93.4 44.6 168.7 72.2 223.9 81.9 1.3 0.2 2.6 0.4 3.8 0.4 47.8 0 310.9-114.6 393.9-206.4 3.7-4.1 5.8-9.4 5.8-15.1 0-25-7.6-45.4-22.7-60.5-22.8-22.8-63.2-34.4-120-34.4-17.3 0-70.4 19.3-153.4 55.8l-2.1 0.9-0.6-2.3c-17.3-65.6-26.9-75.6-30.1-78.9-7.1-7.2-72.6-45.1-148.7-83-53.9-26.6-149.9-71.5-188.6-71.5z m267.8 450.3l-0.3-0.1c-134.3-24.7-364.5-159-366.8-160.4-3.3-2-7.2-3-11.2-3H55.6V569.3l1.5-0.4c40-9.2 241.8-55.4 291.3-55.4 26.5 0 101.2 34.1 159.2 62.6 63.4 31.2 129 67.1 145.4 78.3l0.4 0.3 0.2 0.4c5 9.6 14 40.1 20.8 66l0.4 1.6-1.5 0.7c-7 3.2-13.7 6.2-20.1 9.2-4.1 1.9-8 3.7-11.7 5.3l-1 0.5L505.8 651c-3.6-2.3-7.8-3.6-12.1-3.6h-58.9c-12.2 0.3-22 10.6-21.7 23 0.3 12 9.8 21.6 21.7 21.8h52.3l0.5 0.3 139 90.3c6.4 4.2 14.4 4.7 21.5 1.6 92.7-43.2 204.5-90.7 223.4-92h0.1c30.7 0 53.3 3.1 69.1 9.6 16.3 6.6 25.5 16.8 28.3 31.1l0.2 1-0.8 0.8c-47.4 46.8-140.7 95.6-192 120.6-60.2 29.2-136.5 60.9-160.1 63.5l-0.1 0.1zM59.6 751.6h178.2c4.8 0 9.3 1.2 13.3 3.6 2.3 1.3 231.6 135.1 365.3 159.9 18.2-2.1 83.6-26.7 158.5-63.1 117.7-57.1 169.5-98.9 190.2-119.1-2.7-12.3-11.1-21.2-25.7-27.1-15.3-6.2-37.4-9.3-67.5-9.3-18.6 1.4-129.7 48.6-222 91.6-8.3 3.8-17.8 3.1-25.3-1.8l-138.5-90h-51.2c-14.1-0.3-25.4-11.6-25.7-25.8-0.3-14.6 11.2-26.7 25.7-27h59c5 0 9.9 1.5 14.2 4.2L641 734c3.4-1.5 7-3.2 10.7-4.9 6-2.7 12.1-5.6 18.6-8.5-7.7-29.6-15.6-54.7-19.8-63.1-35.2-23.8-255.9-140-302-140-48.4 0-245.6 44.9-288.9 54.9v179.2z m764-169.5h-85.7c-49.9 0-90.5-40.8-90.5-90.9s40.6-90.9 90.5-90.9h85.7c49.9 0 90.5 40.8 90.5 90.9s-40.6 90.9-90.5 90.9z m-85.7-177.8c-47.7 0-86.5 39-86.5 86.9 0 47.9 38.8 86.9 86.5 86.9h85.7c47.7 0 86.5-39 86.5-86.9 0-47.9-38.8-86.9-86.5-86.9h-85.7z m85.7 129h-85.7c-23.1 0-41.9-18.9-41.9-42.1 0-23.2 18.8-42.1 41.9-42.1h85.7c23.1 0 41.9 18.9 41.9 42.1 0.1 23.2-18.8 42.1-41.9 42.1z m-85.7-80.2c-20.9 0-37.9 17.1-37.9 38.1s17 38.1 37.9 38.1h85.7c20.9 0 37.9-17.1 37.9-38.1s-17-38.1-37.9-38.1h-85.7z m-128.5-84.8h-85.7c-49.9 0-90.5-40.8-90.5-91 0-50.1 40.6-90.9 90.5-90.9h85.7c49.9 0 90.5 40.8 90.5 91 0.1 50.1-40.5 90.9-90.5 90.9z m-85.7-177.9c-47.7 0-86.5 39-86.5 86.9 0 48 38.8 87 86.5 87h85.7c47.7 0 86.5-39 86.5-86.9 0-48-38.8-87-86.5-87h-85.7z m85.7 129h-85.7c-23.1 0-41.9-18.9-41.9-42.1s18.8-42.1 41.9-42.1h85.7c23.1 0 41.9 18.9 41.9 42.1s-18.7 42.1-41.9 42.1z m-85.7-80.2c-20.9 0-37.9 17.1-37.9 38.1s17 38.1 37.9 38.1h85.7c20.9 0 37.9-17.1 37.9-38.1s-17-38.1-37.9-38.1h-85.7z m342.8 0h-85.7c-49.9 0-90.5-40.8-90.5-90.9s40.6-90.9 90.5-90.9h85.7c49.9 0 90.5 40.8 90.5 90.9s-40.5 90.9-90.5 90.9zM780.8 61.4c-47.7 0-86.5 39-86.5 86.9s38.8 86.9 86.5 86.9h85.7c47.7 0 86.5-39 86.5-86.9s-38.8-86.9-86.5-86.9h-85.7z m85.7 128.9h-85.7c-23.1 0-41.9-18.9-41.9-42.1s18.8-42.1 41.9-42.1h85.7c23.1 0 41.9 18.9 41.9 42.1s-18.7 42.1-41.9 42.1z m-85.7-80.2c-20.9 0-37.9 17.1-37.9 38.1s17 38.1 37.9 38.1h85.7c20.9 0 37.9-17.1 37.9-38.1s-17-38.1-37.9-38.1h-85.7z" p-id="8404"></path><path d="M614.8 968.1c-1.4 0-3-0.1-4.5-0.4-130.4-22.9-337.9-139.4-379.4-163.2H33.3C18.8 804.5 7 792.6 7 778.1V551.6c0-12.3 8.4-22.9 20.2-25.7 2.6-0.6 257.2-61 321.1-61 69 0 324.7 140.3 339.9 155.7 3.7 3.7 13.2 13.4 30.6 78.4 80.8-35.4 131.4-53.9 151-55.2v-0.1h2c97.4 0 146.8 33.3 146.8 98.9 0 6.6-2.4 12.9-6.9 17.8-83.5 92.3-348.6 207.7-396.9 207.7zM348.4 468.8c-63.5 0-317.6 60.3-320.2 60.9-10.1 2.4-17.2 11.4-17.2 21.8V778c0 12.3 10.1 22.4 22.3 22.4H232l0.5 0.3c40.3 23.2 248.2 140.2 378.6 163 1.3 0.2 2.6 0.3 3.9 0.3 47.8 0 310.9-114.6 394-206.4 3.8-4.1 5.8-9.5 5.8-15.1 0-62.7-47.7-94.6-141.6-94.9H872c-17.2 0-70.2 19.3-153.4 55.9l-2.1 0.9-0.6-2.3c-17.4-66-27-75.7-30.2-78.9-7.1-7.1-72.6-45.1-148.7-82.9-53.9-26.6-149.9-71.5-188.6-71.5z m267.9 450.3l-0.3-0.1c-133.5-24.5-364.6-159-366.8-160.4-3.4-2-7.3-3-11.3-3H55.6V569.3l1.5-0.3c24.4-5.7 240.2-55.4 291.3-55.4 26.5 0 101.3 34.1 159.2 62.6 63.4 31.2 129.1 67.1 145.4 78.3l0.4 0.3 0.2 0.4c5.3 10.2 14.5 42 20.8 66l0.4 1.6-1.5 0.7c-9.3 4.2-21.3 9.7-31.7 14.5l-1 0.5-0.9-0.6-133.8-86.8c-3.6-2.3-7.8-3.6-12.1-3.6h-58.9c-5.9 0.2-11.5 2.6-15.5 7s-6.3 10-6.2 16c0.3 11.9 9.9 21.5 21.7 21.8h52.3l0.5 0.3L626.8 783c6.4 4.2 14.4 4.7 21.5 1.5 92.6-43.2 204.3-90.6 223.4-92h0.1c30.7 0 53.3 3.1 69.1 9.6 16.2 6.6 25.5 16.8 28.3 31.1l0.2 1.1-0.8 0.8c-47.4 46.8-140.6 95.7-192 120.6-60.1 29.2-136.4 60.9-160 63.5l-0.3-0.1zM59.6 751.6h178.3c4.7 0 9.2 1.3 13.2 3.6 2.3 1.4 232.3 135.3 365.2 159.9 18.2-2.1 83.6-26.7 158.4-63.1 117.7-57.2 169.5-98.9 190.2-119.1-2.7-12.3-11.2-21.1-25.6-27.1-15.3-6.2-37.3-9.3-67.5-9.3-18.2 1.4-129.4 48.5-222 91.6-8.4 3.8-17.8 3.1-25.4-1.8l-138.5-89.8h-51.2c-14-0.4-25.3-11.7-25.7-25.7-0.4-14.6 11.2-26.7 25.6-27.1h58.9c5.1 0 10 1.5 14.2 4.2l132.9 86.2c9.6-4.4 20.4-9.4 29.2-13.4-7.8-29.7-15.7-54.8-19.8-63.1-35.2-23.8-255.6-140-301.9-140-49.7 0-258.1 47.8-288.9 54.9l0.4 179.1z m764-169.5h-85.7c-49.9 0-90.5-40.8-90.5-90.9s40.6-90.9 90.5-90.9h85.7c49.9 0 90.5 40.8 90.5 90.9s-40.6 90.9-90.5 90.9z m-85.7-177.8c-47.7 0-86.5 39-86.5 86.9s38.8 86.9 86.5 86.9h85.7c47.7 0 86.5-39 86.5-86.9s-38.8-86.9-86.5-86.9h-85.7z m85.7 129.1h-85.7c-23.1 0-41.9-18.9-41.9-42.1 0-23.2 18.8-42.1 41.9-42.1h85.8c11.2 0 21.6 4.4 29.6 12.3 8 8 12.3 18.6 12.3 29.8 0 23.2-18.9 42.1-42 42.1z m-85.7-80.3c-20.9 0-37.9 17.1-37.9 38.1s17 38.1 37.9 38.1h85.7c20.9 0 37.9-17.1 37.9-38.1 0-10.2-4-19.8-11.2-27-7.2-7.2-16.6-11.1-26.8-11.1h-85.6z m-212.2-84.8h-2c-49.9 0-90.5-40.8-90.5-91 0-50.1 40.6-90.9 90.5-90.9h85.7c49.9 0 90.5 40.8 90.5 91 0 50.1-40.6 90.9-90.5 90.9h-83.7z m-2-177.9c-47.7 0-86.5 39-86.5 86.9 0 47.7 38.4 86.6 85.8 87h86.4c47.7 0 86.5-39 86.5-86.9 0-48-38.8-87-86.5-87h-85.7z m85.7 129.1h-85.7c-23.1 0-41.9-18.9-41.9-42.1s18.8-42.1 41.9-42.1h85.7c23.1 0 41.9 18.9 41.9 42.1s-18.8 42.1-41.9 42.1z m-85.7-80.3c-20.9 0-37.9 17.1-37.9 38.1s17 38.1 37.9 38.1h85.7c20.9 0 37.9-17.1 37.9-38.1s-17-38.1-37.9-38.1h-85.7z m342.7 0h-85.7c-49.9 0-90.5-40.8-90.5-90.9s40.6-90.9 90.5-90.9h85.7c49.9 0 90.5 40.8 90.5 90.9 0.2 50.1-40.5 90.9-90.5 90.9zM780.8 61.4c-47.7 0-86.5 39-86.5 86.9s38.8 86.9 86.5 86.9h85.7c47.7 0 86.5-39 86.5-86.9s-38.8-86.9-86.5-86.9h-85.7z m85.6 129h-85.7c-23.1 0-41.9-18.9-41.9-42.1s18.8-42.1 41.9-42.1h85.7c23.1 0 41.9 18.9 41.9 42.1s-18.7 42.1-41.9 42.1z m-85.6-80.3c-20.9 0-37.9 17.1-37.9 38.1s17 38.1 37.9 38.1h85.7c20.9 0 37.9-17.1 37.9-38.1s-17-38.1-37.9-38.1h-85.7z" p-id="8405"></path><path d="M614.8 970.1c-1.8 0-3.4-0.1-4.9-0.4-55.3-9.7-130.5-37.1-223.5-81.4-71.4-34-132.6-68.3-156-81.7H33.3C17.7 806.5 5 793.8 5 778.1V551.6c0-13.3 8.9-24.6 21.8-27.6l0.7-0.2c26.4-6.2 260.1-60.9 320.9-60.9 69.7 0 326.1 140.9 341.3 156.3 3.7 3.7 13.3 13.4 30.5 77 77.2-33.8 126.8-52 147.6-54.3v-0.3h4c98.7 0 148.8 33.9 148.8 100.9 0 7.1-2.6 13.9-7.4 19.1-83.9 92.8-349.9 208.5-398.4 208.5z m-207.7-76.5c83.9 38.9 152.3 63.2 203.5 72.2 1.2 0.2 2.6 0.4 4.1 0.4 35.4 0 188.4-62.5 299.6-132.3C803.1 903.5 650.3 966 614.9 966c-1.4 0-2.8-0.1-4.2-0.3-59.5-10.4-135.1-40.4-203.6-72.1z m-58.7-422.8c-59.9 0-292.7 54.5-319.1 60.7l-0.7 0.2C19.4 533.8 13 542 13 551.5V778c0 11.2 9.1 20.4 20.3 20.4h199.2l1 0.6c40.3 23.2 248 140 377.9 162.7 1.1 0.2 2.4 0.3 3.5 0.3 47.6 0 309.7-114.2 392.5-205.7 3.4-3.7 5.3-8.6 5.3-13.8 0-61.3-47-92.6-139.6-92.9h-1.2c-11.8 0-47.9 9.7-152.6 55.7l-4.2 1.8-1.2-4.6c-17.3-65.6-26.6-74.9-29.7-78-6.9-6.9-73.6-45.5-148.1-82.5-119.4-58.8-167.9-71.2-187.7-71.2zM9.3 782.1c1.9 11.6 11.9 20.4 24 20.4h198.2l0.5 0.3c16 9.1 50.2 28.4 93.6 50.8-45-23.2-79.9-42.9-94.1-51.1H33.3c-12-0.1-22-8.9-24-20.4z m708.4-80.5c0.5-0.2 1.1-0.5 1.6-0.7l-1.6 0.7z m90.6-37.5c-7.8 3-16.3 6.3-25.4 10 8.7-3.6 17.2-7 25.4-10zM616.1 921.3l-0.6-0.3c-133.6-24.6-365.2-159.3-367.4-160.6-3-1.8-6.5-2.7-10.2-2.7H53.6v-190l3.1-0.6c2.3-0.5 237.9-55.4 291.7-55.4 14.8 0 54.6 10.9 160.1 62.8 63.2 31.1 129 67.1 145.6 78.4l0.8 0.6 0.4 0.8c5.4 10.4 14.6 42.3 21 66.4l0.8 3.2-3 1.4c-5.4 2.4-19.1 8.7-31.7 14.5l-2 1-1.9-1.2-133.8-86.8c-3.3-2.1-7.2-3.3-11.1-3.3h-58.9c-5.4 0.2-10.4 2.4-14.1 6.4-3.8 4.1-5.7 9.1-5.6 14.6 0.3 10.8 9 19.6 19.8 19.8h52.8l1 0.6 139.3 90.4c5.8 3.8 13.1 4.3 19.6 1.4 92.6-43.2 204.6-90.7 224-92.2h0.1c31.1 0 54 3.2 70 9.8 16.9 6.9 26.5 17.5 29.5 32.6l0.4 2.2-1.5 1.5c-20.6 20.3-72.9 63-192.5 121-60.2 29.2-136.8 61.1-160.7 63.7h-0.7z m0.5-4.2l0.2 0.1c24-3 99.4-34.4 158.9-63.3 119.1-57.7 171.1-100.1 191.5-120.2l-0.7 0.7c-20.4 19.9-72.4 62-190.7 119.5-74.8 36.3-140.9 61.1-159.2 63.2zM61.5 749.6h176.4c4.9 0 9.7 1.3 14.2 3.9 2.2 1.4 231.9 135 364.3 159.6 18.4-2.3 83.5-26.9 157.5-62.9 116.3-56.5 168-97.9 188.9-117.9-2.8-11-10.7-19-24.2-24.6-15.2-6.1-37-9.1-66.7-9.1C853.7 700.1 743 747 650.7 790c-9 4.1-19.2 3.3-27.3-1.9l-138-89.5h-50.6c-15.1-0.4-27.3-12.6-27.7-27.6-0.4-15.6 11.9-28.7 27.5-29.2h59c5.3 0 10.6 1.6 15.3 4.5l132 85.6 1.8-0.8c8.3-3.8 17.3-8 24.9-11.4-7.2-27.4-14.9-52-19-60.6-36.3-24.3-254.5-139.4-300.4-139.4-47.7 0-243.8 44.6-286.9 54.5v175.4z m810.2-55.1c-8.5 0.6-38.1 11.3-83.4 30.2-31.6 13.2-68.6 29.4-105.3 46 84.2-38.2 172.6-75 188.7-76.2H874.1h-2.4z m-385.6 0h0.6l0.5 0.3 95.4 61.9-96.1-62.4h-51.7c-6.5-0.2-12.4-2.9-16.6-7.1 4.3 4.4 10.2 7.2 16.8 7.3h51.1zM57.6 753.6h180.3H57.6zM669 708.7c1 3.7 2 7.6 3.1 11.5l0.4 1.5c-1.2-4.2-2.3-8.6-3.5-13z m229.4-13.3c10.9 0.9 20.4 2.3 28.6 4.3-8.2-2-17.7-3.4-28.6-4.3z m-550-179.8c46.8 0.1 267.9 116.6 303 140.3l0.4 0.3 0.2 0.5c2.2 4.4 5.3 13.2 8.9 24.7-3.5-11.4-6.8-20.7-9.2-25.3-16.4-11.2-82-47.1-145.1-78.1-82.9-40.8-137.6-62.4-158.2-62.4z m-0.4 0z m0.1 0z m0 0z m0.1 0z m0 0z m0 0z m0.1 0z m0 0c0.1 0 0.1 0 0 0 0.1 0 0.1 0 0 0z m0 0z m475.3 68.5h-85.7c-51 0-92.5-41.7-92.5-92.9s41.5-92.9 92.5-92.9h85.7c51 0 92.5 41.7 92.5 92.9s-41.5 92.9-92.5 92.9z m-85.7-4h85.7-85.7z m0-173.8c-46.6 0-84.5 38.1-84.5 84.9 0 46.8 37.9 84.9 84.5 84.9h85.7c46.6 0 84.5-38.1 84.5-84.9 0-46.8-37.9-84.9-84.5-84.9h-85.7z m85.7 129.1h-85.7c-24.2 0-43.9-19.8-43.9-44.1s19.7-44.1 43.9-44.1h85.7c11.7 0 22.7 4.6 31.1 12.9 8.3 8.4 12.9 19.5 12.9 31.2-0.1 24.3-19.8 44.1-44 44.1z m-125.1-37.6c3.1 19 19.6 33.6 39.4 33.6h85.7c22 0 39.9-18 40-40.1 0-6.7-1.7-13.2-4.8-19 3.1 5.8 4.7 12.2 4.7 18.9 0 22.1-17.9 40.1-39.9 40.1h-85.7c-19.8 0-36.3-14.5-39.4-33.5z m39.4-42.7c-19.8 0-35.9 16.2-35.9 36.1s16.1 36.1 35.9 36.1h85.7c19.8 0 35.9-16.2 35.9-36.1 0-9.7-3.8-18.7-10.6-25.6-6.7-6.8-15.8-10.5-25.4-10.5h-85.6z m-128.5-84.8h-85.7c-51 0-92.5-41.7-92.5-93 0-51.2 41.5-92.9 92.5-92.9h85.7c51 0 92.5 41.7 92.5 93 0.1 51.2-41.4 92.9-92.5 92.9z m-85.7-4h85.7-85.7z m-86.2-68.7c8.8 38 41.9 66.7 81.9 68.6-39.9-2-73-30.7-81.9-68.6z m86.2-105.2c-46.6 0-84.5 38.1-84.5 84.9 0 46.5 37.6 84.6 83.9 85h86.4c46.6 0 84.5-38.1 84.5-84.9 0-46.9-37.9-85-84.5-85h-85.8z m85.7 129.1h-85.7c-24.2 0-43.9-19.8-43.9-44.1s19.7-44.1 43.9-44.1h85.7c24.2 0 43.9 19.8 43.9 44.1s-19.6 44.1-43.9 44.1zM484.3 284c3.2 19 19.6 33.5 39.4 33.5h85.7c19.7 0 36.1-14.4 39.3-33.3-3.3 18.8-19.7 33.2-39.3 33.2h-85.7c-19.7 0-36.2-14.4-39.4-33.4z m39.4-42.8c-19.8 0-35.9 16.2-35.9 36.1 0 19.9 16.1 36.1 35.9 36.1h85.7c19.8 0 35.9-16.2 35.9-36.1 0-19.9-16.1-36.1-35.9-36.1h-85.7z m342.7 0h-85.7c-51 0-92.5-41.7-92.5-92.9s41.5-92.9 92.5-92.9h85.7c51 0 92.5 41.7 92.5 92.9 0 24.8-9.6 48.1-27.1 65.7-17.5 17.5-40.7 27.2-65.4 27.2zM780.7 59.4c-48.8 0-88.5 39.9-88.5 88.9 0 49 39.7 88.9 88.5 88.9h85.7-85.6c-48.8 0-88.5-39.9-88.5-88.9 0-49 39.7-88.9 88.4-88.9z m0.1 4c-46.6 0-84.5 38.1-84.5 84.9 0 46.8 37.9 84.9 84.5 84.9h85.7c46.6 0 84.5-38.1 84.5-84.9 0-46.8-37.9-84.9-84.5-84.9h-85.7z m85.6 129h-85.7c-24.2 0-43.9-19.8-43.9-44.1s19.7-44.1 43.9-44.1h85.7c24.2 0 43.9 19.8 43.9 44.1 0.1 24.3-19.6 44.1-43.9 44.1z m-115.7-70.5c-6.2 7.1-9.9 16.3-9.9 26.4 0 22.1 17.9 40.1 39.9 40.1h85.7c10.3 0 19.6-3.9 26.7-10.3-7.1 6.4-16.4 10.2-26.6 10.2h-85.7c-22 0-39.9-18-39.9-40.1 0-10.1 3.7-19.3 9.8-26.3z m30.1-9.8c-19.8 0-35.9 16.2-35.9 36.1 0 19.9 16.1 36.1 35.9 36.1h85.7c19.8 0 35.9-16.2 35.9-36.1 0-19.9-16.1-36.1-35.9-36.1h-85.7z" p-id="8406"></path></svg>