<?xml version="1.0" standalone="no"?><!DOCTYPE svg PUBLIC "-//W3C//DTD SVG 1.1//EN" "http://www.w3.org/Graphics/SVG/1.1/DTD/svg11.dtd"><svg t="1594883530015" class="icon" viewBox="0 0 1024 1024" version="1.1" xmlns="http://www.w3.org/2000/svg" p-id="9116" xmlns:xlink="http://www.w3.org/1999/xlink" width="200" height="200"><defs><style type="text/css"></style></defs><path d="M860.16 911.36c-123.55584 0.9216-163.84-61.46048-245.76-143.38048-61.44-61.41952-143.40096-61.46048-204.82048 0C327.68 849.89952 284.65152 911.36 163.84 911.36c-83.00544-0.04096-143.36-84.25472-143.36-225.28v-327.68c0-135.74144 110.05952-245.76 245.76-245.76h491.52c135.72096 0 245.76 110.01856 245.76 245.76v327.68c0 143.33952-63.20128 225.30048-143.36 225.28z m102.4-552.96c0-113.11104-91.68896-204.8-204.8-204.8H266.24c-113.09056 0-204.8 91.68896-204.8 204.8v327.68c0 81.98144 26.29632 184.29952 102.4 184.29952 102.42048 0 155.7504-68.75136 217.57952-130.56 79.36-79.36 181.9648-77.88544 260.48512 0.63488 73.27744 73.27744 115.99872 129.92512 218.23488 129.92512 73.48224 0.53248 102.4-103.36256 102.4-184.29952v-327.68H962.56z m-204.8 204.8a122.88 122.88 0 1 1 0.02048-245.78048A122.88 122.88 0 0 1 757.76 563.2z m0-204.8a81.92 81.92 0 1 0 0 163.84 81.92 81.92 0 0 0 0-163.84z m-389.12 102.37952h-81.92V542.72a20.48 20.48 0 1 1-40.96 0v-81.94048H163.84a20.48 20.48 0 1 1 0-40.96h81.92V337.92a20.48 20.48 0 0 1 40.96 0v81.89952h81.92a20.48 20.48 0 1 1 0 40.96z" p-id="9117"></path></svg>