<?xml version="1.0" standalone="no"?><!DOCTYPE svg PUBLIC "-//W3C//DTD SVG 1.1//EN" "http://www.w3.org/Graphics/SVG/1.1/DTD/svg11.dtd"><svg t="1594955820333" class="icon" viewBox="0 0 1024 1024" version="1.1" xmlns="http://www.w3.org/2000/svg" p-id="5968" xmlns:xlink="http://www.w3.org/1999/xlink" width="200" height="200"><defs><style type="text/css"></style></defs><path d="M672 128c-57.376 0-109.376 10.752-150.016 31.008C481.376 179.264 448 212.256 448 256v128c0 4.128 1.376 8.128 2.016 12A389.76 389.76 0 0 0 352 384c-57.376 0-109.376 10.752-150.016 31.008C161.376 435.264 128 468.256 128 512v256c0 43.744 33.376 76.736 74.016 96.992C242.624 885.248 294.624 896 352 896c57.376 0 109.376-10.752 150.016-31.008C542.592 844.736 576 811.744 576 768v-12.992A375.04 375.04 0 0 0 672 768c57.376 0 109.376-10.752 150.016-31.008C862.592 716.736 896 683.744 896 640V256c0-43.744-33.376-76.736-74.016-96.992C781.408 138.752 729.408 128 672 128z m0 64c48.736 0 92.128 10.496 120.992 24.992C821.888 231.488 832 246.752 832 256c0 9.28-10.112 24.512-39.008 39.008C764.16 309.504 720.736 320 672 320c-48.736 0-92.128-10.496-120.992-24.992C522.112 280.512 512 265.248 512 256c0-9.28 10.112-24.512 39.008-39.008C579.84 202.496 623.264 192 672 192z m-160 155.008c3.36 1.856 6.496 4.256 10.016 5.984 40.608 20.256 92.608 31.008 149.984 31.008 57.376 0 109.376-10.752 150.016-31.008 3.488-1.728 6.624-4.128 9.984-5.984V384c0 9.28-10.112 24.512-39.008 39.008-28.864 14.496-72.256 24.992-120.992 24.992-48.736 0-92.128-10.496-120.992-24.992C522.112 408.512 512 393.248 512 384zM352 448c48.736 0 92.128 10.496 120.992 24.992 28.896 14.496 39.008 29.76 39.008 39.008 0 9.28-10.112 24.512-39.008 39.008-28.864 14.496-72.256 24.992-120.992 24.992-48.736 0-92.128-10.496-120.992-24.992C202.112 536.512 192 521.248 192 512c0-9.28 10.112-24.512 39.008-39.008C259.84 458.496 303.264 448 352 448z m480 27.008V512c0 9.28-10.112 24.512-39.008 39.008-28.864 14.496-72.256 24.992-120.992 24.992a304 304 0 0 1-96-15.008V512c0-4.128-1.376-8.128-2.016-12 29.76 7.744 62.752 12 98.016 12 57.376 0 109.376-10.752 150.016-31.008 3.488-1.728 6.624-4.128 9.984-5.984z m-640 128c3.36 1.856 6.496 4.256 10.016 5.984C242.624 629.248 294.624 640 352 640c57.376 0 109.376-10.752 150.016-31.008 3.488-1.728 6.624-4.128 9.984-5.984V640c0 9.28-10.112 24.512-39.008 39.008-28.864 14.496-72.256 24.992-120.992 24.992-48.736 0-92.128-10.496-120.992-24.992C202.112 664.512 192 649.248 192 640z m640 0V640c0 9.28-10.112 24.512-39.008 39.008-28.864 14.496-72.256 24.992-120.992 24.992-36.384 0-69.248-5.12-96-14.016v-61.984c29.376 7.744 61.376 12 96 12 57.376 0 109.376-10.752 150.016-31.008 3.488-1.728 6.624-4.128 9.984-5.984z m-640 128c3.36 1.856 6.496 4.256 10.016 5.984C242.624 757.248 294.624 768 352 768c57.376 0 109.376-10.752 150.016-31.008 3.488-1.728 6.624-4.128 9.984-5.984V768c0 9.28-10.112 24.512-39.008 39.008-28.864 14.496-72.256 24.992-120.992 24.992-48.736 0-92.128-10.496-120.992-24.992C202.112 792.512 192 777.248 192 768z" p-id="5969"></path></svg>