<?xml version="1.0" standalone="no"?><!DOCTYPE svg PUBLIC "-//W3C//DTD SVG 1.1//EN" "http://www.w3.org/Graphics/SVG/1.1/DTD/svg11.dtd"><svg t="1594956124736" class="icon" viewBox="0 0 1024 1024" version="1.1" xmlns="http://www.w3.org/2000/svg" p-id="2030" xmlns:xlink="http://www.w3.org/1999/xlink" width="200" height="200"><defs><style type="text/css"></style></defs><path d="M782.78 64H241.22c-43.42 0-78.75 35.34-78.75 78.75v738.5c0 43.42 35.34 78.75 78.75 78.75h541.56c43.42 0 78.75-35.34 78.75-78.75v-738.5c0-43.41-35.33-78.75-78.75-78.75z m-561.27 78.75c0-10.87 8.85-19.71 19.71-19.71h541.56c10.87 0 19.71 8.85 19.71 19.71v64.47c-17.6 48.51-61.11 82.84-112.07 88.08l-19.09 1.92-5.96 18.27C643.59 381.9 581.95 426.56 512 426.56S380.41 381.9 358.63 315.5l-5.96-18.27-19.09-1.92c-50.96-5.24-94.48-39.57-112.07-88.08v-64.48z m561.27 758.21H241.22c-10.87 0-19.71-8.85-19.71-19.71V308.1c24.71 21.4 54.71 36.49 87.46 43.12C343.24 432.33 422.67 485.6 512 485.6s168.76-53.27 203.04-134.38c32.75-6.63 62.75-21.72 87.46-43.12v573.14c-0.01 10.87-8.85 19.72-19.72 19.72z" p-id="2031"></path><path d="M636.48 517.82c-11.54-11.44-30.24-11.49-41.78 0.05L512 600.6l-82.7-82.73c-11.54-11.54-30.24-11.49-41.78-0.05-11.54 11.54-11.54 30.24-0.05 41.78l52.91 52.93h-32c-16.3 0-29.52 13.22-29.52 29.52s13.22 29.52 29.52 29.52h74.09v29.38h-74.09c-16.3 0-29.52 13.22-29.52 29.52s13.22 29.52 29.52 29.52h74.09v63.56c0 16.3 13.22 29.52 29.52 29.52s29.52-13.22 29.52-29.52v-63.56h74.09c16.3 0 29.52-13.22 29.52-29.52s-13.22-29.52-29.52-29.52h-74.09v-29.38h74.09c16.3 0 29.52-13.22 29.52-29.52s-13.22-29.52-29.52-29.52h-32l52.91-52.93c11.51-11.54 11.51-30.24-0.03-41.78z" p-id="2032"></path></svg>