<?xml version="1.0" standalone="no"?><!DOCTYPE svg PUBLIC "-//W3C//DTD SVG 1.1//EN" "http://www.w3.org/Graphics/SVG/1.1/DTD/svg11.dtd"><svg t="1594718212196" class="icon" viewBox="0 0 1572 1024" version="1.1" xmlns="http://www.w3.org/2000/svg" p-id="5133" xmlns:xlink="http://www.w3.org/1999/xlink" width="307.03125" height="200"><defs><style type="text/css"></style></defs><path d="M1051.498667 955.733333h-68.266667v-853.333333c0-20.533333-13.6-34.133333-34.133333-34.133333H505.365333c-20.533333 0-34.133333 13.6-34.133333 34.133333v375.466667H402.965333V102.4c0-58 44.4-102.4 102.4-102.4H949.098667c58 0 102.4 44.4 102.4 102.4v853.333333z m-170.666667-750.933333h-68.266667C792.032 204.8 778.432 191.2 778.432 170.666667s13.6-34.133333 34.133333-34.133334h68.266667c20.533333 0 34.133333 13.6 34.133333 34.133334s-13.6 34.133333-34.133333 34.133333z m0 136.533333h-68.266667c-20.533333 0-34.133333-13.6-34.133333-34.133333 0-20.533333 13.6-34.133333 34.133333-34.133333h68.266667c20.533333 0 34.133333 13.6 34.133333 34.133333 0 20.533333-13.6 34.133333-34.133333 34.133333zM778.432 955.733333h-68.266667V512c0-20.533333-13.6-34.133333-34.133333-34.133333H266.432c-20.533333 0-34.133333 13.6-34.133333 34.133333v443.733333h-68.266667V512c0-58 44.4-102.4 102.4-102.4h409.6c58 0 102.4 44.4 102.4 102.4v443.733333z m-375.466667-341.333333H334.698667c-20.533333 0-34.133333-13.6-34.133334-34.133333 0-20.533333 13.6-34.133333 34.133334-34.133334h68.266666c20.533333 0 34.133333 13.6 34.133334 34.133334 0 20.533333-13.6 34.133333-34.133334 34.133333z m204.8 0h-68.266666c-20.533333 0-34.133333-13.6-34.133334-34.133333 0-20.533333 13.6-34.133333 34.133334-34.133334H607.765333c20.533333 0 34.133333 13.6 34.133334 34.133334 0 20.533333-13.6 34.133333-34.133334 34.133333zM402.965333 750.933333H334.698667c-20.533333 0-34.133333-13.6-34.133334-34.133333 0-20.533333 13.6-34.133333 34.133334-34.133333h68.266666c20.533333 0 34.133333 13.6 34.133334 34.133333 0 17.066667-13.6 34.133333-34.133334 34.133333z m204.8 0h-68.266666c-20.533333 0-34.133333-13.6-34.133334-34.133333 0-20.533333 13.6-34.133333 34.133334-34.133333H607.765333c20.533333 0 34.133333 13.6 34.133334 34.133333 0 17.066667-13.6 34.133333-34.133334 34.133333zM1085.632 1024h-955.733333c-20.533333 0-34.133333-13.6-34.133334-34.133333 0-20.533333 13.6-34.133333 34.133334-34.133334h955.733333c20.533333 0 34.133333 13.6 34.133333 34.133334 0 20.533333-13.6 34.133333-34.133333 34.133333z m0 0" fill="#272636" p-id="5134"></path></svg>