<?xml version="1.0" standalone="no"?><!DOCTYPE svg PUBLIC "-//W3C//DTD SVG 1.1//EN" "http://www.w3.org/Graphics/SVG/1.1/DTD/svg11.dtd"><svg t="1594883594091" class="icon" viewBox="0 0 1113 1024" version="1.1" xmlns="http://www.w3.org/2000/svg" p-id="10654" xmlns:xlink="http://www.w3.org/1999/xlink" width="217.3828125" height="200"><defs><style type="text/css"></style></defs><path d="M899.917913 929.569391a58.768696 58.768696 0 0 1-12.377043-1.202087l-0.979479-0.26713-0.979478-0.356174-320.912696-100.61913 14.692174-46.658783 319.087305 100.08487c1.869913 0.133565 5.921391 0.133565 8.236521-1.691827 2.938435-2.31513 4.897391-8.904348 5.253566-17.630608l0.133565-1.558261 0.26713-1.602783 141.267479-781.712695v-0.133566a29.384348 29.384348 0 0 0-12.510609 0.623305L88.865391 591.382261a82.810435 82.810435 0 0 0-7.479652 5.876869l288.946087 89.57774-14.647652 46.703304-303.727304-94.118957-1.958957-1.113043c-20.034783-10.50713-23.596522-26.045217-23.952696-34.326261-1.202087-27.291826 27.870609-48.306087 36.819479-54.049391l0.845913-0.445218 0.890434-0.534261L1022.263652 31.254261l2.359652-0.75687c12.866783-3.917913 25.6-4.763826 37.977044-2.31513 26.401391 4.986435 43.942957 30.408348 39.17913 56.809739L960.77913 865.28c-1.736348 29.339826-14.246957 44.833391-24.531478 52.669217-12.510609 9.527652-26.490435 11.620174-36.329739 11.620174z" fill="#999999" p-id="10655"></path><path d="M503.986087 1006.458435h-49.062957V758.650435l0.356174-2.092522c0.445217-3.116522 5.87687-32.144696 23.641044-55.696696C493.790609 681.182609 984.553739 119.318261 1040.473043 55.429565l37.042087 32.144696c-150.928696 172.477217-545.391304 624.417391-559.460173 642.626782-8.192 10.907826-12.733217 26.267826-14.113392 32.901566v243.355826z" fill="#999999" p-id="10656"></path></svg>