<?xml version="1.0" standalone="no"?><!DOCTYPE svg PUBLIC "-//W3C//DTD SVG 1.1//EN" "http://www.w3.org/Graphics/SVG/1.1/DTD/svg11.dtd"><svg t="1594730849347" class="icon" viewBox="0 0 1024 1024" version="1.1" xmlns="http://www.w3.org/2000/svg" p-id="5889" xmlns:xlink="http://www.w3.org/1999/xlink" width="200" height="200"><defs><style type="text/css"></style></defs><path d="M512 0C229.226667 0 0 229.226667 0 512s229.226667 512 512 512 512-229.226667 512-512A512 512 0 0 0 512 0z m0 938.666667C276.352 938.666667 85.333333 747.648 85.333333 512S276.352 85.333333 512 85.333333s426.666667 191.018667 426.666667 426.666667-191.018667 426.666667-426.666667 426.666667z" p-id="5890"></path><path d="M682.666667 469.333333h-128v-128a42.666667 42.666667 0 1 0-85.333334 0v128h-128a42.666667 42.666667 0 1 0 0 85.333334h128v128a42.666667 42.666667 0 1 0 85.333334 0v-128h128a42.666667 42.666667 0 1 0 0-85.333334z" p-id="5891"></path></svg>