<?xml version="1.0" standalone="no"?><!DOCTYPE svg PUBLIC "-//W3C//DTD SVG 1.1//EN" "http://www.w3.org/Graphics/SVG/1.1/DTD/svg11.dtd"><svg t="1594954159746" class="icon" viewBox="0 0 1024 1024" version="1.1" xmlns="http://www.w3.org/2000/svg" p-id="6787" xmlns:xlink="http://www.w3.org/1999/xlink" width="200" height="200"><defs><style type="text/css"></style></defs><path d="M682.88 785.6a61.92 61.92 0 0 1-46.56-21.12A165.76 165.76 0 0 0 512 707.84a163.36 163.36 0 0 0-124.16 56.48 61.44 61.44 0 0 1-88.64 3.68 65.76 65.76 0 0 1-4.32-91.2 288 288 0 0 1 434.4 0 65.76 65.76 0 0 1-4.32 91.2 61.28 61.28 0 0 1-42.08 16zM822.24 624a61.92 61.92 0 0 1-44.32-18.72 370.08 370.08 0 0 0-531.68 0 61.6 61.6 0 0 1-88.8 0 65.92 65.92 0 0 1 0-91.36 493.28 493.28 0 0 1 708.96 0 65.92 65.92 0 0 1 0 91.36A62.4 62.4 0 0 1 822.24 624z m139.04-161.28a61.92 61.92 0 0 1-43.52-17.92 575.2 575.2 0 0 0-811.36 0 61.6 61.6 0 0 1-88.8-1.92A65.92 65.92 0 0 1 19.2 352a698.4 698.4 0 0 1 985.44 0 65.92 65.92 0 0 1 1.92 91.36 61.76 61.76 0 0 1-45.28 20zM436.16 880A75.84 75.84 0 1 0 512 802.08 76.96 76.96 0 0 0 436.16 880z" fill="#D4D4D4" p-id="6788"></path></svg>