<?xml version="1.0" standalone="no"?><!DOCTYPE svg PUBLIC "-//W3C//DTD SVG 1.1//EN" "http://www.w3.org/Graphics/SVG/1.1/DTD/svg11.dtd"><svg t="1594881535478" class="icon" viewBox="0 0 1684 1024" version="1.1" xmlns="http://www.w3.org/2000/svg" p-id="3669" xmlns:xlink="http://www.w3.org/1999/xlink" width="328.90625" height="200"><defs><style type="text/css"></style></defs><path d="M1448.29032223 269.76209658c-16.33064529-16.33064529-36.7439513-25.85685471-59.87903164-25.8568547h-54.43548377V185.38709658c0-47.6310487-38.10483848-88.45766152-83.01411365-88.4576607h-92.54032222c-44.90927435 0-83.01411282 40.82661282-83.01411283 88.4576607v212.29838719H492.94758035V185.38709658c0-47.6310487-38.10483848-88.45766152-83.01411282-88.4576607h-92.54032224c-44.90927435 0-83.01411282 40.82661282-83.01411282 88.4576607v59.87903247h-54.43548377c-44.90927435 0-83.01411282 40.82661282-83.01411282 88.45766155v378.32661281c0 47.6310487 38.10483848 88.45766152 83.01411282 88.45766071h54.43548377V838.61290342c0 47.6310487 38.10483848 88.45766152 83.01411282 88.4576607h92.54032224c44.90927435 0 83.01411282-40.82661282 83.01411282-88.4576607V627.67540341h582.45967777V838.61290342c0 47.6310487 38.10483848 88.45766152 83.01411283 88.4576607h92.54032222c44.90927435 0 83.01411282-40.82661282 83.01411365-88.4576607v-40.82661283h54.43548377c44.90927435 0 83.01411282-40.82661282 83.01411283-88.45766154V331.00201623c1.36088718-21.77419318-6.80443588-43.54838718-23.13508119-61.23991964zM227.57459658 710.68951623H177.22177435V331.00201623h50.35282223v379.6875z m182.35887095 130.64516154h-92.54032224V181.30443588h92.54032224v660.03024189z m661.39112905-299.39516154H497.03024187v-59.87903246H1069.96370941v59.87903246z m179.63709659 299.39516154h-92.54032222V181.30443588h92.54032222v660.03024189z m140.17137095-130.64516154h-50.35282225V331.00201623h50.35282225v379.6875z" p-id="3670"></path></svg>