<?xml version="1.0" standalone="no"?><!DOCTYPE svg PUBLIC "-//W3C//DTD SVG 1.1//EN" "http://www.w3.org/Graphics/SVG/1.1/DTD/svg11.dtd"><svg t="1594956048030" class="icon" viewBox="0 0 1024 1024" version="1.1" xmlns="http://www.w3.org/2000/svg" p-id="14300" xmlns:xlink="http://www.w3.org/1999/xlink" width="200" height="200"><defs><style type="text/css"></style></defs><path d="M506 959.7c-61.2 0-108.5-2.4-148.8-7.5-50.8-6.4-91.9-17.4-125.6-33.5-39.1-18.7-69-45-89-78.4-21.5-35.8-32.4-81-32.4-134.4 0-53.4 10.5-105.3 31.1-154.1 19.9-47.1 48.5-89.5 84.8-125.8s78.7-64.9 125.8-84.8c48.8-20.6 100.7-31.1 154.1-31.1 91.8 0 161.4 24.2 218.8 76.1 51.9 46.9 90.3 112.5 134.6 188.4 9.5 16.2 19.3 32.9 29.5 50.1 34.9 58.3 37.8 116.8 8.2 169-35.7 63-108.6 101.8-163.5 123.3-69.5 27.1-152.4 42.7-227.6 42.7z m0-609.6c-196.2 0-355.8 159.6-355.8 355.8 0 88.4 31.4 144.5 98.7 176.7 68.4 32.7 168.4 37.1 257.1 37.1 70.4 0 148-14.6 213-40 69.1-27 120-64.6 143.3-105.8 22.4-39.5 19.8-82.8-7.7-128.7-10.4-17.3-20.2-34.2-29.7-50.4-86.1-147.4-143-244.7-318.9-244.7z" fill="#AAAAAA" p-id="14301"></path><path d="M402.4 368c8-12.4 15.9-14 23.9-4.7l15.9 65.3h135.3l31.8-65.3c13.2-9.3 21.2-6.2 23.9 9.3l-27.9 55.9h119.4c10.6 9.3 10.6 18.6 0 28H573.5v55.9h63.7c34.5 0 50.4 17.1 47.7 51.3v41.9h55.7c10.6 9.3 10.6 18.6 0 28h-55.7v41.9c2.6 37.3-11.9 54.4-43.8 51.3h-51.7c45.1 62.2 98.1 108.8 159.2 139.8 8 15.5 5.3 24.8-8 28-58.4-24.9-114.1-74.6-167.1-149.1V918c-8 12.4-15.9 12.4-23.9 0V726.9H470V918c-8 12.4-15.9 12.4-23.9 0V740.9c-39.8 62.2-92.9 113.4-159.2 153.8-13.3 0-17.3-7.8-11.9-23.3 61-37.3 111.4-85.4 151.2-144.5h-91.5c-10.6-9.3-10.6-18.6 0-28h111.4v-65.3H287c-10.6-9.3-10.6-18.6 0-28h159.2v-65.3H342.7c-10.6-9.3-10.6-18.6 0-28h103.5v-55.9H302.9c-10.6-9.3-10.6-18.6 0-28h115.4L402.4 368z m147.2 88.6H470v55.9h79.6v-55.9z m0 83.9H470v65.3h79.6v-65.3z m0 93.2H470V699h79.6v-65.3z m87.6-93.2h-63.7v65.3H661v-37.3c2.7-18.7-5.3-28-23.8-28z m23.8 93.2h-87.5V699h59.7c21.2 3.1 30.5-6.2 27.9-28v-37.3z" fill="#AAAAAA" p-id="14302"></path><path d="M562.9 299.8c-59.3 0-129.5-6.7-161.5-22.2h-0.1c-20.3-10-42.2-31.3-60.1-58.5-10.7-16.3-28.9-48.5-30.7-81.5-1.4-25.5 8.1-46 26.6-57.7 14.8-9.3 35.5-5.2 55.6-1.3 7.5 1.5 16.8 3.3 20.9 3.1 8-0.4 21.9-4.5 35.5-8.6 24-7.1 46.7-13.9 64.7-10.5 16.5 3 28.7 15.6 39.4 26.6 4.8 5 10.8 11.2 14.1 12.7 7.6 3.5 30.4 4.2 47.1 4.7 21.5 0.6 41.9 1.2 55.8 6.2 11.4 4.1 20.5 12.7 29.3 21.1 5 4.7 11.8 11.2 15.2 12.4 3.8 1.3 13.7 2.4 21.7 3.4 15.1 1.7 29.4 3.4 39.3 8.4 17.8 9.2 27.4 33.5 26.4 51.8-1.7 29.1-33.3 51.7-96.6 69.4-48.6 13.5-101.3 20.1-132 20.6-3.4-0.2-7-0.1-10.6-0.1zM419 241.6c23.1 11.2 89.3 19 154.1 18.1 26.5-0.4 75.2-6.4 119.5-18.5 55.4-15.1 69.1-30.4 69.7-33.7 0.2-4.5-2.8-12-5-14-4-1.7-17.3-3.2-25.3-4.1-11.5-1.3-22.3-2.6-30.3-5.3-11.5-4.1-20.7-12.8-29.6-21.2-5-4.7-11.8-11.2-15.2-12.4-7.9-2.8-26.8-3.4-43.5-3.9-24.5-0.7-47.7-1.4-62.7-8.3-10-4.6-18.2-13-26.1-21.2-4.9-5-14-14.4-18-15.1-8.6-1.6-30.3 4.8-46.1 9.5-16.5 4.9-32.1 9.5-44.9 10.2-8.9 0.4-19.4-1.6-30.5-3.8-7.9-1.6-22.3-4.4-27.4-3.5-2.8 1.9-7.8 6.7-7.1 21.1 0.9 17 9.9 40.1 24.2 61.7 13.5 20.7 30.5 37.7 44.2 44.4z m338-48.3z m-400-78.9z" fill="#AAAAAA" p-id="14303"></path></svg>