<?xml version="1.0" standalone="no"?><!DOCTYPE svg PUBLIC "-//W3C//DTD SVG 1.1//EN" "http://www.w3.org/Graphics/SVG/1.1/DTD/svg11.dtd"><svg t="1594955985650" class="icon" viewBox="0 0 1024 1024" version="1.1" xmlns="http://www.w3.org/2000/svg" p-id="12058" xmlns:xlink="http://www.w3.org/1999/xlink" width="200" height="200"><defs><style type="text/css"></style></defs><path d="M831.1 4.983H188.682c-0.304 0-0.568 0.041-0.891 0.061-0.304-0.02-0.587-0.061-0.891-0.061-70.35 0-127.592 57.243-127.592 127.571V878.38c0 9.399 3.789 18.352 10.554 24.834l104.237 100.531c13.369 12.862 34.515 12.862 47.885 0l106.344-102.557 110.335 106.384c13.369 12.923 34.537 12.923 47.905 0l110.335-106.384 110.355 106.384c6.685 6.442 15.313 9.682 23.922 9.682 8.63 0 17.279-3.24 23.962-9.682l99.883-96.296a34.544 34.544 0 0 0 10.554-24.834V255.548c55.562-14.827 96.56-64.293 96.56-122.995 0-70.327-58.783-127.571-131.035-127.571z m-34.497 866.795l-65.427 63.119-110.355-106.424c-13.349-12.904-34.495-12.904-47.863 0L462.623 934.897 352.268 828.473c-13.37-12.904-34.516-12.904-47.885 0L198.039 931.007l-69.761-67.249V132.556c0-32.329 26.293-58.622 58.621-58.622 0.284 0 0.547-0.081 0.811-0.081 0.344 0 0.648 0.081 0.973 0.081h0.12c34.172 0.081 61.942 26.352 61.942 58.622 0 32.329-27.833 58.64-62.064 58.64-19.061 0-34.475 15.414-34.475 34.456 0 19.061 15.414 34.516 34.475 34.516h607.922v611.61zM831.1 191.197H305.051c9.357-17.602 14.687-37.534 14.687-58.64s-5.327-41.039-14.687-58.622H831.1c34.231 0 62.064 26.293 62.064 58.622s-27.833 58.64-62.064 58.64zM313.443 498.109v234.119h30.784v-292.04c13.636-28.623 26.597-59.811 38.885-93.567l-31.593-10.937c-19.443 63.46-49.821 125.161-91.136 185.108 4.051 9.722 8.37 21.873 12.961 36.454 13.906-17.822 27.271-37.533 40.101-59.137z m90.325 234.119h30.784v-21.467h156.35v21.467h30.784V539.426H403.77v192.802z m30.785-165.26h156.35v44.96h-156.35v-44.96z m0 71.694h156.35v44.555h-156.35v-44.555z m6.48-160.4H372.58v27.545h286.775v-27.545h-76.148v-57.518h61.567V393.2h-61.567v-55.897h-30.784V393.2h-80.606v-55.897h-30.785V393.2h-52.251v27.544h52.251v57.518z m30.784-57.517h80.606v57.518h-80.606v-57.518z" p-id="12059"></path></svg>