<?xml version="1.0" standalone="no"?><!DOCTYPE svg PUBLIC "-//W3C//DTD SVG 1.1//EN" "http://www.w3.org/Graphics/SVG/1.1/DTD/svg11.dtd"><svg t="1594881553163" class="icon" viewBox="0 0 1024 1024" version="1.1" xmlns="http://www.w3.org/2000/svg" p-id="4430" xmlns:xlink="http://www.w3.org/1999/xlink" width="200" height="200"><defs><style type="text/css"></style></defs><path d="M510.976 1013.76c-67.584 0-133.290667-13.312-195.413333-39.765333-59.733333-25.429333-113.664-61.781333-159.744-108.032-46.250667-46.250667-82.602667-100.010667-108.032-159.744C21.504 644.266667 8.192 578.56 8.192 510.976c0-67.584 13.312-133.290667 39.765333-195.413333 25.429333-59.733333 61.781333-113.664 108.032-159.744C202.24 109.568 256 73.216 315.733333 47.786667c61.952-26.282667 127.658667-39.765333 195.413334-39.765334 67.584 0 133.290667 13.312 195.242666 39.765334 59.733333 25.429333 113.493333 61.781333 159.744 108.032 46.250667 46.250667 82.602667 100.010667 108.032 159.744 26.282667 61.952 39.765333 127.658667 39.765334 195.413333 0 67.584-13.312 133.290667-39.765334 195.242667-25.429333 59.733333-61.781333 113.493333-108.032 159.744-46.250667 46.250667-100.010667 82.602667-159.744 108.032C644.266667 1000.448 578.56 1013.76 510.976 1013.76z m0-937.301333c-115.541333 0-224.597333 45.397333-306.858667 127.658666-82.261333 82.261333-127.658667 191.317333-127.658666 306.858667 0 115.541333 45.397333 224.597333 127.658666 306.858667S395.434667 945.493333 510.976 945.493333c115.541333 0 224.597333-45.397333 306.858667-127.658666C900.096 735.573333 945.493333 626.517333 945.493333 510.976c0-115.541333-45.397333-224.597333-127.658666-306.858667S626.517333 76.458667 510.976 76.458667z m114.688 624.810666H390.997333c-40.277333 0-73.045333-32.768-73.045333-73.045333V393.728c0-40.277333 32.768-73.045333 73.045333-73.045333h234.496c40.277333 0 73.045333 32.768 73.045334 73.045333v234.496c0.170667 40.277333-32.597333 73.045333-72.874667 73.045333zM390.997333 388.778667c-2.730667 0-4.778667 2.218667-4.778666 4.778666V628.053333c0 2.730667 2.218667 4.778667 4.778666 4.778667h234.496c2.730667 0 4.778667-2.218667 4.778667-4.778667V393.728c0-2.730667-2.218667-4.778667-4.778667-4.778667H390.997333z" p-id="4431"></path></svg>