<?xml version="1.0" standalone="no"?><!DOCTYPE svg PUBLIC "-//W3C//DTD SVG 1.1//EN" "http://www.w3.org/Graphics/SVG/1.1/DTD/svg11.dtd"><svg t="1594954358583" class="icon" viewBox="0 0 1024 1024" version="1.1" xmlns="http://www.w3.org/2000/svg" p-id="2278" xmlns:xlink="http://www.w3.org/1999/xlink" width="200" height="200"><defs><style type="text/css"></style></defs><path d="M576.3 599c13.7 7.9 29.3 12.1 45.1 12.1 32.2 0 62.3-17.3 78.4-45.2l146.1-253.1c12.1-20.9 15.3-45.3 9-68.6-6.2-23.3-21.2-42.8-42.1-54.9l-70.7-40.8c-3.9-2.2-8.3-2.8-12.6-1.7-4.3 1.2-7.9 3.9-10.1 7.8-0.8 1.4-1.4 2.9-1.7 4.4l-0.1 0.3-0.2 0.2c-1.2 1.1-2.2 2.4-2.9 3.7L511.2 515.1 308 163.2c-0.8-1.4-1.8-2.6-2.9-3.7l-0.2-0.2-0.1-0.3c-0.4-1.5-1-3-1.8-4.4-2.2-3.9-5.8-6.6-10.1-7.8-4.3-1.1-8.8-0.6-12.6 1.7l-70.7 40.8c-20.9 12.1-35.9 31.6-42.1 54.9-6.3 23.3-3 47.7 9 68.6l146.1 253.1c16.1 27.9 46.1 45.2 78.4 45.2 15.8 0 31.4-4.2 45.1-12.1l10.8-6.2 4.8 8.4L396.5 714l-0.9-0.7c-5.1-4.4-10.6-8.3-16.4-11.7-16.1-9.3-34.5-14.3-53.2-14.3-38 0-73.4 20.4-92.4 53.3-14.2 24.7-18 53.4-10.6 80.9 7.4 27.5 25 50.5 49.7 64.7 16.2 9.3 34.5 14.3 53.2 14.3 36.7 0 71.4-19.4 90.7-50.6l0.3-0.3c0.8-0.9 1.4-1.7 1.9-2.6l92.5-160.2L603.7 847c0.5 0.8 1.1 1.7 1.9 2.6l0.2 0.3c19.3 31.2 54 50.6 90.7 50.6 18.6 0 37-5 53.2-14.3 24.7-14.2 42.3-37.2 49.7-64.7 7.4-27.5 3.6-56.2-10.6-80.9-19-32.9-54.4-53.3-92.4-53.3-18.6 0-37 5-53.2 14.3-5.8 3.4-11.3 7.3-16.4 11.7l-0.9 0.7-59.4-103c-0.2-0.6-0.5-1.1-0.8-1.7l-4.8-8.3 4.7-8.2 10.7 6.2zM389.4 830.5c-13 22.6-37.4 36.6-63.5 36.6-12.8 0-25.4-3.4-36.5-9.8-16.9-9.8-29.1-25.6-34.1-44.5-5.1-18.9-2.5-38.6 7.3-55.6 13-22.6 37.4-36.6 63.5-36.6 12.8 0 25.4 3.4 36.5 9.8 16.9 9.8 29.1 25.6 34.1 44.5 5.1 18.9 2.5 38.7-7.3 55.6z m102.5-177l-63.7 110.4-0.6-2c-2.1-6.8-5-13.5-8.5-19.8l-0.3-0.5 0.4-0.5c0.6-0.7 1.1-1.4 1.4-2.1L481 634.5l10.9 19z m-51.7-89.6l-10.8 6.2c-8.6 5-18.5 7.6-28.5 7.7-20.4 0-39.3-10.9-49.5-28.5l-146-253.1c-7.5-13-9.6-28.8-5.7-43.3 3.9-14.5 13.5-27.1 26.6-34.6L237 212l203.2 351.9z m316.3-368.6l-215 372.3-11.1-19.2 209.4-362.7 16.7 9.6zM601.7 738.9c0.4 0.7 0.9 1.4 1.4 2.1l0.4 0.5-0.3 0.5c-3.5 6.3-6.3 12.9-8.5 19.8l-0.6 2-328.2-568.5 16.6-9.6 238.3 412.7c0.3 0.6 0.6 1.2 0.8 1.7l80.1 138.8zM593 570.1l-10.8-6.2L785.3 212l10.8 6.2c13 7.5 22.7 20.1 26.6 34.6 3.9 14.5 1.8 30.3-5.7 43.3L670.9 549.2c-10.2 17.6-29.1 28.5-49.5 28.5-9.9 0.1-19.8-2.6-28.4-7.6zM625.7 775c5.1-18.9 17.2-34.7 34.1-44.5 11.1-6.4 23.7-9.8 36.5-9.8 26.1 0 50.5 14 63.5 36.6 9.8 16.9 12.4 36.7 7.3 55.6-5.1 18.9-17.2 34.7-34.1 44.5-11.1 6.4-23.7 9.8-36.5 9.8-26.1 0-50.5-14-63.5-36.6-9.8-17-12.4-36.7-7.3-55.6z" fill="#333333" p-id="2279"></path></svg>