<?xml version="1.0" standalone="no"?><!DOCTYPE svg PUBLIC "-//W3C//DTD SVG 1.1//EN" "http://www.w3.org/Graphics/SVG/1.1/DTD/svg11.dtd"><svg t="1594883630962" class="icon" viewBox="0 0 1024 1024" version="1.1" xmlns="http://www.w3.org/2000/svg" p-id="11479" xmlns:xlink="http://www.w3.org/1999/xlink" width="200" height="200"><defs><style type="text/css"></style></defs><path d="M794.702664 224.691435c-57.016575-57.016575-132.824121-88.416725-213.458603-88.416725-80.633459 0-156.441005 31.401174-213.45758 88.416725-57.016575 57.016575-88.416725 132.824121-88.416725 213.458603 0 75.79322 27.748994 147.319254 78.432327 202.986087L150.09753 848.840678c-8.553817 8.553817-8.861832 22.167882-0.677429 30.355355 3.967358 3.964288 9.213849 5.933129 14.541181 5.933129 5.653767 0 11.399631-2.218528 15.803941-6.622838l208.343095-208.343095c54.135968 45.223994 121.739669 69.861114 193.137789 69.861114 80.634482 0 156.442028-31.401174 213.458603-88.416725s88.416725-132.824121 88.416725-213.45758S851.719238 281.70801 794.702664 224.691435zM765.759471 622.664426c-49.285496 49.285496-114.813932 76.428693-184.514387 76.428693s-135.228891-27.142174-184.514387-76.428693-76.428693-114.813932-76.428693-184.514387 27.142174-135.228891 76.428693-184.514387c49.285496-49.28652 114.813932-76.428693 184.514387-76.428693s135.228891 27.142174 184.514387 76.428693c49.285496 49.285496 76.428693 114.813932 76.428693 184.514387S815.044968 573.378929 765.759471 622.664426z" p-id="11480"></path><path d="M581.245084 295.229978c-78.805834 0-142.919037 64.113203-142.919037 142.92006 0 78.805834 64.113203 142.92006 142.919037 142.92006 78.806857 0 142.92006-64.113203 142.92006-142.92006C724.165144 359.343181 660.050917 295.229978 581.245084 295.229978zM581.245084 540.136827c-56.235792 0-101.986789-45.750997-101.986789-101.987812 0-56.236815 45.750997-101.987812 101.986789-101.987812s101.987812 45.750997 101.987812 101.987812C683.232896 494.38583 637.480876 540.136827 581.245084 540.136827z" p-id="11481"></path></svg>