<?xml version="1.0" standalone="no"?><!DOCTYPE svg PUBLIC "-//W3C//DTD SVG 1.1//EN" "http://www.w3.org/Graphics/SVG/1.1/DTD/svg11.dtd"><svg t="1594953996806" class="icon" viewBox="0 0 1024 1024" version="1.1" xmlns="http://www.w3.org/2000/svg" p-id="3712" xmlns:xlink="http://www.w3.org/1999/xlink" width="200" height="200"><defs><style type="text/css"></style></defs><path d="M865.161 848.78c-36.069 0-59.763-11.241-84.847-23.143-21.157-10.037-42.971-20.356-71.020-22.503l73.483-163.937c10.292-22.96 1.732-49.95-19.914-62.774l-26.887-15.935v-241.531c0-9.105-7.381-16.487-16.487-16.487h-95.617v-90.671c0-9.105-7.381-16.486-16.486-16.486h-77.483v-36.268c0-9.105-7.381-16.486-16.487-16.486s-16.487 7.381-16.487 16.486v36.268h-77.483c-9.105 0-16.487 7.381-16.487 16.486v90.671h-95.618c-9.105 0-16.486 7.381-16.486 16.487v240.691l-25.536 14.983c-22.612 13.265-30.944 41.925-18.97 65.245l83.763 163.139c-24.969 1.92-44.961 10.851-65.972 20.258-27.85 12.471-56.651 25.369-104.159 25.369-9.105 0-16.486 7.381-16.486 16.486s7.381 16.486 16.486 16.486c54.553 0 88.066-15.007 117.635-28.246 21.298-9.538 39.691-17.773 62.399-17.773 25.703 0 50.603 10.252 76.961 21.104 29.623 12.199 60.256 24.811 95.733 24.811 34.753 0 67.659-12.247 99.482-24.090 30.039-11.18 58.414-21.739 86.464-21.739 25.902 0 45.19 9.151 67.529 19.749 26.007 12.338 55.486 26.324 98.978 26.324 9.104 0 16.486-7.381 16.486-16.486s-7.383-16.487-16.489-16.487zM435.931 228.282h154.966v74.187h-154.966v-74.187zM323.829 335.441h379.174v205.505l-180.818-107.158c-5.163-3.061-11.575-3.075-16.748-0.037l-181.609 106.55v-204.861zM600.692 826.515c-30.426 11.325-59.165 22.020-87.982 22.020-28.957 0-55.295-10.845-83.18-22.326-19.637-8.084-39.741-16.348-61.034-20.62l-92.814-180.774c-3.99-7.774-1.215-17.327 6.323-21.748l213.276-125.129v192.165c0 9.104 7.381 16.487 16.487 16.487s16.486-7.382 16.486-16.487v-194.391l217.801 129.074c7.214 4.274 10.068 13.268 6.638 20.924l-80.352 179.262c-24.571 4.041-48.402 12.893-71.646 21.543z" fill="#dbdbdb" p-id="3713"></path><path d="M422.743 373.358h-52.755c-9.104 0-16.486 7.381-16.486 16.486s7.381 16.487 16.486 16.487h52.755c9.104 0 16.486-7.381 16.486-16.487 0-9.104-7.382-16.486-16.486-16.486z" fill="#dbdbdb" p-id="3714"></path><path d="M673.327 389.844c0-9.104-7.381-16.487-16.486-16.487h-156.614c-9.104 0-16.486 7.381-16.486 16.487 0 9.105 7.381 16.486 16.487 16.486h156.615c9.104 0 16.486-7.381 16.486-16.486z" fill="#dbdbdb" p-id="3715"></path></svg>