<?xml version="1.0" standalone="no"?><!DOCTYPE svg PUBLIC "-//W3C//DTD SVG 1.1//EN" "http://www.w3.org/Graphics/SVG/1.1/DTD/svg11.dtd"><svg t="1594881661680" class="icon" viewBox="0 0 1024 1024" version="1.1" xmlns="http://www.w3.org/2000/svg" p-id="8307" xmlns:xlink="http://www.w3.org/1999/xlink" width="200" height="200"><defs><style type="text/css"></style></defs><path d="M415.744 739.328c-7.168 0-14.336 4.096-18.432 10.24-3.072 5.12-4.096 10.24-2.048 16.384 1.024 5.12 5.12 10.24 9.216 13.312 4.096 2.048 41.984 23.552 92.16 23.552 32.768 0 63.488-9.216 92.16-26.624 10.24-6.144 13.312-19.456 7.168-28.672-4.096-6.144-10.24-10.24-18.432-10.24-4.096 0-7.168 1.024-11.264 3.072-21.504 13.312-46.08 20.48-70.656 20.48-38.912 0-66.56-16.384-69.632-17.408-2.048-3.072-6.144-4.096-10.24-4.096zM668.672 499.712c43.008 0 81.92-15.36 107.52-43.008 4.096-4.096 6.144-9.216 6.144-15.36 0-5.12-2.048-11.264-6.144-14.336-4.096-4.096-9.216-6.144-14.336-6.144-6.144 0-11.264 2.048-15.36 6.144-17.408 18.432-45.056 28.672-74.752 28.672-28.672 0-55.296-9.216-71.68-24.576-6.144-1.024-11.264-3.072-16.384-3.072-6.144 0-11.264 2.048-15.36 7.168-8.192 8.192-7.168 21.504 1.024 29.696 24.576 22.528 61.44 34.816 99.328 34.816zM137.216 295.936l104.448 38.912L281.6 471.04c3.072 9.216 11.264 15.36 20.48 15.36 9.216 0 17.408-6.144 20.48-15.36l38.912-135.168L466.944 296.96c8.192-3.072 13.312-11.264 13.312-19.456 0-9.216-5.12-16.384-14.336-19.456l-105.472-38.912L322.56 81.92c-2.048-9.216-11.264-15.36-20.48-15.36-9.216 0-17.408 6.144-20.48 15.36l-39.936 136.192L137.216 256c-8.192 4.096-14.336 11.264-14.336 20.48 0 8.192 6.144 16.384 14.336 19.456z m133.12-51.2l31.744-107.52 30.72 107.52L419.84 276.48l-87.04 32.768-30.72 106.496-31.744-106.496L184.32 276.48l86.016-31.744z" p-id="8308"></path><path d="M1000.448 107.52c-2.048-10.24-10.24-17.408-20.48-17.408h-4.096c-5.12 1.024-10.24 4.096-13.312 8.192-3.072 4.096-4.096 10.24-3.072 15.36C988.16 276.48 999.424 368.64 925.696 522.24l-9.216 18.432c-48.128 99.328-89.088 184.32-70.656 266.24l3.072 12.288-11.264-5.12c-29.696-14.336-51.2-34.816-61.44-60.416l-1.024-3.072 2.048-3.072C839.68 645.12 885.76 500.736 898.048 362.496v-2.048-4.096c0-2.048-1.024-3.072-1.024-4.096-1.024-1.024-1.024-2.048-2.048-3.072-1.024-1.024-2.048-2.048-2.048-3.072-1.024-1.024-2.048-2.048-3.072-2.048-1.024-1.024-2.048-1.024-4.096-2.048-1.024 0-1.024-1.024-2.048-1.024C738.304 296.96 633.856 173.056 615.424 77.824c-2.048-10.24-10.24-17.408-20.48-17.408h-4.096c-5.12 1.024-10.24 4.096-13.312 9.216-3.072 5.12-4.096 10.24-3.072 15.36 18.432 100.352 118.784 231.424 274.432 286.72l5.12 2.048-1.024 5.12c-20.48 171.008-95.232 379.904-216.064 459.776-75.776 50.176-122.88 75.776-139.264 75.776-27.648 0-80.896-35.84-116.736-60.416l-19.456-13.312C286.72 791.552 245.76 689.152 198.656 571.392l-11.264-27.648c-3.072-8.192-11.264-13.312-19.456-13.312-3.072 0-5.12 0-8.192 1.024-10.24 4.096-16.384 16.384-11.264 27.648l11.264 27.648c20.48 51.2 44.032 110.592 71.68 160.768l10.24 19.456-19.456-11.264C162.816 719.872 83.968 648.192 41.984 504.832c-3.072-9.216-10.24-15.36-20.48-15.36-2.048 0-4.096 0-6.144 1.024-5.12 2.048-10.24 5.12-12.288 10.24-3.072 5.12-3.072 10.24-2.048 16.384C71.68 754.688 235.52 815.104 283.648 827.392h2.048l1.024 2.048c17.408 19.456 33.792 34.816 52.224 46.08l18.432 12.288c56.32 37.888 103.424 67.584 140.288 67.584 31.744 0 86.016-31.744 164.864-83.968 26.624-18.432 53.248-43.008 78.848-75.776l5.12-6.144 5.12 7.168c44.032 63.488 128 72.704 131.072 72.704h2.048c7.168 0 13.312-4.096 17.408-9.216 4.096-6.144 4.096-15.36 0-21.504-46.08-77.824-3.072-167.936 52.224-280.576l8.192-17.408c79.872-164.864 67.584-267.264 37.888-433.152z" p-id="8309"></path></svg>