<?xml version="1.0" standalone="no"?><!DOCTYPE svg PUBLIC "-//W3C//DTD SVG 1.1//EN" "http://www.w3.org/Graphics/SVG/1.1/DTD/svg11.dtd"><svg t="1594884719802" class="icon" viewBox="0 0 1024 1024" version="1.1" xmlns="http://www.w3.org/2000/svg" p-id="12253" xmlns:xlink="http://www.w3.org/1999/xlink" width="200" height="200"><defs><style type="text/css"></style></defs><path d="M861.709824 622.2336l141.056 74.9056c19.3024 9.728 26.2656 33.9968 16.4864 52.9408a38.2464 38.2464 0 0 1-16.4864 16.128l-472.3712 252.8256a40.5504 40.5504 0 0 1-37.1712 0L20.903424 766.208c-19.3024-9.728-26.2656-33.9456-16.4864-53.1456a40.5504 40.5504 0 0 1 16.4864-15.872l140.8-74.9568-140.8-75.7248A39.936 39.936 0 0 1 4.417024 493.056a44.032 44.032 0 0 1 16.4864-15.5648l140.8-75.2128-140.8-75.7248a38.8608 38.8608 0 0 1 0-68.7616L493.223424 4.608c11.776-6.144 25.7024-6.144 37.1712 0l472.3712 253.1328a39.424 39.424 0 0 1 16.4864 52.8896 42.8544 42.8544 0 0 1-16.4864 15.872l-141.056 75.776 141.056 75.1616a39.424 39.424 0 0 1 16.4864 52.9408 43.7248 43.7248 0 0 1-16.4864 16.128l-141.056 75.776z m-350.0032 98.048c129.8944-69.376 260.096-138.752 389.632-208.5888l-122.3168-65.4336-248.6272 132.864a33.1776 33.1776 0 0 1-12.5952 4.4544h-0.8192l-3.584 0.512h-3.1232l-3.328-0.512h-1.1264a35.328 35.328 0 0 1-12.5952-4.4544L244.647424 446.2592l-122.368 65.4336c129.6384 69.888 260.096 139.264 389.4272 208.5888" p-id="12254"></path></svg>