<?xml version="1.0" standalone="no"?><!DOCTYPE svg PUBLIC "-//W3C//DTD SVG 1.1//EN" "http://www.w3.org/Graphics/SVG/1.1/DTD/svg11.dtd"><svg t="1594956162697" class="icon" viewBox="0 0 1024 1024" version="1.1" xmlns="http://www.w3.org/2000/svg" p-id="3889" xmlns:xlink="http://www.w3.org/1999/xlink" width="200" height="200"><defs><style type="text/css"></style></defs><path d="M814.592 512h-12.288c-29.696 123.392-136.704 216.064-267.264 223.744V926.72h160.768c25.6 0 46.08 20.48 46.08 46.08H282.624c0-25.088 20.48-46.08 46.08-46.08h160.768v-190.976c-130.048-7.68-237.568-100.352-267.264-223.744h-12.8C108.032 512 25.6 430.592 25.6 329.728v-133.12c0-18.944 13.312-34.304 30.208-34.304h157.696V107.008c0-30.72 24.576-55.296 55.296-55.808h486.4c30.72 0 55.296 25.088 55.296 55.808v55.296h157.696c16.896 0 30.208 15.36 30.208 34.304v133.12c0 100.864-82.432 182.272-183.808 182.272zM208.896 208.384H71.68v121.344C71.68 404.48 133.12 465.92 209.408 465.92l-0.512-257.536z m556.032-101.376c0-5.12-4.096-9.216-9.216-9.728h-486.4c-5.12 0-9.728 4.096-9.216 9.216v336.384c0 136.704 110.592 247.808 246.784 247.808h11.776c136.192 0 246.784-111.104 246.784-247.808l-0.512-335.872zM952.32 208.384h-137.216l-0.512 257.536C890.88 465.92 952.32 404.48 952.32 329.728V208.384zM391.68 553.472c1.024 0.512 1.024 0.512 0 0 0.512 0.512 0 0.512 0 0z" p-id="3890"></path></svg>