<?xml version="1.0" standalone="no"?><!DOCTYPE svg PUBLIC "-//W3C//DTD SVG 1.1//EN" "http://www.w3.org/Graphics/SVG/1.1/DTD/svg11.dtd"><svg t="1594956151042" class="icon" viewBox="0 0 1024 1024" version="1.1" xmlns="http://www.w3.org/2000/svg" p-id="3065" xmlns:xlink="http://www.w3.org/1999/xlink" width="200" height="200"><defs><style type="text/css"></style></defs><path d="M906.7 337.8l-344.1 90.8c-5.6 1.5-11.5 1.5-17 0l-344.1-90.8c-27.3-7.2-27.3-46 0-53.2l344.1-91.4c5.6-1.5 11.5-1.5 17.1 0l344.1 91.4c27.2 7.3 27.2 46-0.1 53.2z" fill="#9292A5" p-id="3066"></path><path d="M784.5 310.9v432.7c0 11.2-5.3 21.5-13.8 26.9-40.7 25.7-118.1 65-219.9 64.1-98.3-0.8-173.1-38.8-213.3-64.1-8.5-5.4-13.8-15.7-13.8-26.9V317.3M882.9 811c-10 0-18.1-8.6-18.1-18.9l-0.5-384.8c0-10.3 8.1-19.3 18-19.3 10 0 18.1 8.8 18.1 19.1l0.5 384.7c0.1 10.3-8 18.2-18 19.2z" fill="#9292A5" p-id="3067"></path><path d="M936.5 500.4c-5.8 0-11.4-2.8-14.9-8l-39.2-58.5-39.2 58.5c-5.7 8.4-16.9 10.6-25.1 4.8-8.2-5.8-10.3-17.4-4.7-25.8l54.1-80.8c3.4-5 8.9-8 14.9-8s11.5 3 14.9 8l54.1 80.8c5.7 8.4 3.6 20-4.7 25.8-3.1 2.1-6.6 3.2-10.2 3.2z" fill="#9292A5" p-id="3068"></path><path d="M461.2 449.4c-4.6 0-9.3-0.6-13.8-1.8l-344.1-90.8c-21.4-5.7-35.9-24.4-35.9-46.5 0-22.2 14.4-40.9 35.8-46.6l344.1-91.4c9.1-2.4 18.7-2.4 27.8 0l344.1 91.4c21.4 5.7 35.8 24.4 35.8 46.6 0 22.2-14.4 40.9-35.9 46.5l-5.3-20 5.3 20L475 447.6c-4.6 1.2-9.2 1.8-13.8 1.8z m0-237.7c-1.1 0-2.2 0.1-3.3 0.4l-344.1 91.4c-4.2 1.1-5.1 4.2-5.1 6.6 0 2.4 0.9 5.5 5.1 6.6l344.1 90.8c2.1 0.6 4.4 0.6 6.5 0l344.1-90.8c4.2-1.1 5.1-4.2 5.1-6.6 0-2.4-0.9-5.5-5.1-6.7L464.4 212c-1-0.1-2.1-0.3-3.2-0.3z" fill="#1E223F" p-id="3069"></path><path d="M461.1 854.3h-3.5c-97.9-0.7-175.3-31.8-223-57.7-15.1-8.2-24.6-24-24.6-41.3V388.5c0-11.4 9.2-20.7 20.7-20.7 11.4 0 20.7 9.2 20.7 20.7v366.9c0 2.1 1.1 4 3 5 43.5 23.7 114.2 52 203.6 52.7h3.2c90.6 0 162.4-28.6 206.7-52.7 1.8-1 3-2.9 3-5V383c0-11.4 9.2-20.7 20.7-20.7 11.4 0 20.7 9.2 20.7 20.7v372.4c0 17.2-9.4 33-24.6 41.3-48.7 26.3-127.3 57.6-226.6 57.6z" fill="#1E223F" p-id="3070"></path><path d="M790 830c-11.4 0-20.6-9.5-20.7-20.9l-0.5-402.9c0-11.4 9.2-21.2 20.6-21.2 11.4 0 20.6 9.6 20.7 21l0.5 402.8c0 11.5-9.2 21.2-20.6 21.2z" fill="#1E223F" p-id="3071"></path><path d="M843.6 504.8c-6.8 0-13.5-3.4-17.4-9.5l-36.7-57.4-36.7 57.4c-6.1 9.6-18.9 12.4-28.5 6.3-9.6-6.1-12.4-18.9-6.3-28.5l54.1-84.6c3.8-5.9 10.4-9.5 17.4-9.5s13.6 3.6 17.4 9.5L861 473c6.1 9.6 3.3 22.4-6.3 28.5-3.4 2.2-7.3 3.3-11.1 3.3z" fill="#1E223F" p-id="3072"></path></svg>