<?xml version="1.0" standalone="no"?><!DOCTYPE svg PUBLIC "-//W3C//DTD SVG 1.1//EN" "http://www.w3.org/Graphics/SVG/1.1/DTD/svg11.dtd"><svg t="1594954202930" class="icon" viewBox="0 0 1024 1024" version="1.1" xmlns="http://www.w3.org/2000/svg" p-id="7805" xmlns:xlink="http://www.w3.org/1999/xlink" width="200" height="200"><defs><style type="text/css"></style></defs><path d="M498.21 774.63c-71.14 0-138.02-27.7-188.33-78.01s-78.01-117.19-78.01-188.33 27.7-138.02 78.01-188.33c50.3-50.3 117.19-78.01 188.33-78.01 71.14 0 138.02 27.7 188.33 78.01 50.3 50.3 78.01 117.19 78.01 188.33s-27.7 138.02-78.01 188.33c-50.3 50.31-117.19 78.01-188.33 78.01z m0-512.67c-135.83 0-246.34 110.51-246.34 246.34s110.51 246.34 246.34 246.34c135.83 0 246.34-110.51 246.34-246.34S634.04 261.96 498.21 261.96z" fill="#231815" p-id="7806"></path><path d="M678.16 316.43h-20v-82.62c0-88.19-71.75-159.95-159.94-159.95s-159.95 71.75-159.95 159.95v82.62h-20v-82.62c0-99.22 80.72-179.95 179.94-179.95s179.95 80.72 179.95 179.95v82.62zM498.21 967.48c-99.22 0-179.95-80.72-179.95-179.95v-82.62h20v82.62c0 88.19 71.75 159.95 159.94 159.95s159.95-71.75 159.95-159.95v-82.62h20v82.62c0.01 99.23-80.72 179.95-179.94 179.95z" fill="#231815" p-id="7807"></path><path d="M493.35 518.3a9.98 9.98 0 0 1-7.07-2.93l-78.4-78.4c-3.9-3.91-3.9-10.24 0-14.14 3.91-3.91 10.24-3.91 14.14 0l72.05 72.05 127.07-102.42c4.3-3.47 10.59-2.79 14.06 1.51 3.47 4.3 2.79 10.6-1.51 14.06L499.62 516.08a9.993 9.993 0 0 1-6.27 2.22z" fill="#EB6B8E" p-id="7808"></path></svg>