<?xml version="1.0" standalone="no"?><!DOCTYPE svg PUBLIC "-//W3C//DTD SVG 1.1//EN" "http://www.w3.org/Graphics/SVG/1.1/DTD/svg11.dtd"><svg t="1594883558312" class="icon" viewBox="0 0 1024 1024" version="1.1" xmlns="http://www.w3.org/2000/svg" p-id="9876" xmlns:xlink="http://www.w3.org/1999/xlink" width="200" height="200"><defs><style type="text/css"></style></defs><path d="M110.69973 560.927339c0.283456-61.034075 27.125801-122.597199 64.459081-182.654017l0 0c37.533848-59.974953 86.562495-118.396527 135.332245-170.130795l0 0c97.549733-103.3396 194.154955-179.713035 194.816011-180.285063l0 0c11.010775-8.730848 26.510794-8.689916 37.535895 0l0 0c1.096984 1.222851 217.651089 171.353646 330.135976 350.415858l0 0c37.331233 60.055794 64.174602 121.620965 64.504106 182.654017l0 0c-0.128937 223.617987-185.635931 403.374-413.414681 403.774113l0 0 0-30.220279L524.068362 904.213823c195.502649-0.048095 352.537172-154.305365 352.901469-343.286484l0 0c1.428535-74.086345-66.998927-181.631734-148.303674-272.856411l0 0C649.985166 198.567451 561.816081 122.087593 524.103154 90.650603l0 0c-4.53734 3.780093-9.804297 8.228405-15.736403 13.296841l0 0c-21.549805 18.359137-51.449789 44.717458-84.660168 76.290547l0 0c-66.337871 63.117526-145.82318 147.730623-197.262736 230.104725l0 0c-34.521235 54.830793-55.526641 108.48376-55.243185 150.584624l0 0c0.330528 188.981119 157.400866 343.238388 352.868723 343.286484l0 0 0 30.267351 0 30.220279C296.373523 964.300316 110.818433 784.54635 110.69973 560.927339L110.69973 560.927339z" p-id="9877"></path><path d="M471.33023 790.842753c-7.562233-3.544733-11.70867-11.777231-10.078543-19.970844l0 0 31.661094-158.423149-157.896146 0c-7.007601 0-13.363356-3.992941-16.373922-10.30674l0 0c-3.024893-6.315846-2.12643-13.811564 2.279926-19.276019l0 0L555.011094 294.745954c5.257747-6.479575 14.306844-8.516977 21.845541-4.973268l0 0c7.535627 3.544733 11.69639 11.82021 10.066263 19.965727l0 0-31.709189 158.387333 157.979034 0c6.970762 0 13.364379 4.034896 16.32685 10.349719l0 0c3.025916 6.314823 2.127454 13.811564-2.266623 19.234063l0 0L493.115396 785.869484c-3.533476 4.348028-8.743128 6.699586-14.084787 6.699586l0 0C476.433458 792.56907 473.787188 792.003182 471.33023 790.842753L471.33023 790.842753zM373.118418 576.184835l141.960199 0c5.459339 0 10.595312 2.446725 14.024411 6.639211l0 0c3.461845 4.199649 4.841262 9.699919 3.778046 15.080463l0 0L511.203356 706.046484l163.804716-201.613834L533.094946 504.432651c-5.471618 0-10.596336-2.446725-14.024411-6.64535l0 0c-3.460822-4.236488-4.842285-9.735735-3.791349-15.074324l0 0 21.620413-108.083647L373.118418 576.184835 373.118418 576.184835z" p-id="9878"></path><path d="M524.091898 493.024833" p-id="9879"></path></svg>