<?xml version="1.0" standalone="no"?><!DOCTYPE svg PUBLIC "-//W3C//DTD SVG 1.1//EN" "http://www.w3.org/Graphics/SVG/1.1/DTD/svg11.dtd"><svg t="1594956075958" class="icon" viewBox="0 0 1024 1024" version="1.1" xmlns="http://www.w3.org/2000/svg" p-id="15060" xmlns:xlink="http://www.w3.org/1999/xlink" width="200" height="200"><defs><style type="text/css"></style></defs><path d="M293.312 321.984l-0.384 23.36c-0.192 6.528 0.448 6.016-6.464 6.08H205.568c-6.336 0-5.632-0.512-5.632 5.76l-0.704 48.256c-0.192 8.576-1.216 7.808 9.024 7.808h69.952c9.856 0.128 9.152-0.704 8.896 8.576l-0.256 23.68c-0.256 4.288 0.256 4.8-5.632 4.736l-73.92-0.128c-9.92-0.192-8.576-0.512-9.024 9.344l-3.584 250.496c-0.192 10.688 0.256 9.792-13.888 9.792l-45.248 0.128c-14.976 0-13.568 1.088-13.312-11.136l3.584-252.032c0.192-7.104 0.896-6.592-6.784-6.592H44.672c-7.296 0-6.848 0.512-6.656-5.184l0.32-25.344C38.4 412.544 37.632 413.248 44.8 413.248h73.6c8.512 0.064 7.936 0.704 8.256-7.424l0.64-47.424c0.128-7.808 0.448-6.848-5.824-6.976H45.632c-7.232 0-6.336 0.704-6.272-5.504l0.32-23.68c0.128-8.512-0.64-7.744 9.28-7.872h236.16c8.576 0.064 8.32-0.384 8.192 7.616z m-19.2 318.592c-6.528-12.672-8.832-27.712-8.576-44.736l1.408-98.048c0.064-7.104 0.96-6.528-6.272-6.528h-34.048c-7.552 0-6.592-0.576-6.656 5.952l-1.664 127.168c-0.256 21.632 9.344 42.688 19.84 54.72 11.072 12.608 22.72 23.36 35.392 31.744 8 5.376 9.024 4.224 9.472-0.128l0.512-39.616c0.32-22.592-0.128-12.48-9.408-30.528z m-240.896 8.576c-5.056 6.656-4.416 3.968-4.48 12.992l-0.64 43.904c-0.128 9.024-1.984 12.352 8.832 5.248a194.56 194.56 0 0 0 36.864-32.128c10.688-12.032 20.928-33.152 21.312-54.72l2.048-124.992c0.064-8.768 0.768-8.064-6.912-8.064l-33.28-0.064c-7.616 0-6.784-0.96-6.848 6.656L48.704 595.84c-0.256 21.184-4.48 39.04-15.488 53.312zM305.984 514.24l2.368-178.048c0.064-10.624-1.856-9.28 8.384-9.28h22.656c6.08 0 5.44 0.512 5.632-4.48l0.384-27.2c-0.128-4.8-0.256-4.352 6.016-4.352h59.776c7.552 0.128 6.976-0.64 6.784 6.592l-0.32 25.664c-0.128 4.032-0.448 3.776 4.864 3.776h56.448c4.992-0.064 4.544 0.704 4.608-4.864l0.32-24.512c0.064-8-0.64-7.104 7.424-7.04H550.4c7.104 0 6.208-0.64 6.144 7.936l-0.384 22.4c-0.128 7.808-0.896 6.08 7.296 6.08h18.752c9.664 0 9.088-1.216 8.96 11.136l-2.432 168.64c-0.576 24.192 2.048 22.336-21.568 22.336h-136.96c-12.416-0.064-11.328-1.344-11.52 11.968l-0.896 60.16c-1.152 82.24-18.24 108.16-72.704 116.224a109.952 109.952 0 0 1-33.024 0.768c-8.128-0.768-8.192-0.96-8.256-6.144l0.32-25.216c0.192-7.68-0.896-6.784 6.528-7.104 7.424-0.32 16.448-1.216 21.824-2.56 15.104-4.032 15.616-30.272 16-49.664 0.704-28.864 0.448-56.256 1.664-84.416 0.64-15.36-0.384-14.016-17.728-14.016h-12.8c-14.272 0-14.208 1.408-13.632-14.784z m210.56-37.696l1.216-89.664c0.32-25.088 2.688-22.976-17.984-22.976H394.304c-14.464 0-13.888-1.152-13.888 14.272l-1.216 96.128c-0.384 18.944-1.92 17.728 15.936 17.728h102.912c17.856-0.448 17.92-0.128 18.496-15.488z" fill="#1F1E1D" p-id="15061"></path><path d="M460.544 563.328l74.368-0.064c14.016-0.128 10.176-1.984 9.6 10.688-5.12 95.168 152.512 278.08 451.584 196.928-276.864 123.904-518.208-16.896-544.896-197.312-1.856-12.48-2.88-10.24 9.344-10.24z" fill="#1F1E1D" p-id="15062"></path></svg>