<?xml version="1.0" standalone="no"?><!DOCTYPE svg PUBLIC "-//W3C//DTD SVG 1.1//EN" "http://www.w3.org/Graphics/SVG/1.1/DTD/svg11.dtd"><svg t="1594954519264" class="icon" viewBox="0 0 1024 1024" version="1.1" xmlns="http://www.w3.org/2000/svg" p-id="4411" xmlns:xlink="http://www.w3.org/1999/xlink" width="200" height="200"><defs><style type="text/css"></style></defs><path d="M470.2 719c-66.2 0-131.3-10.4-188.6-30.2-57.2-19.7-106-48.4-141-82.9-39.4-38.9-60.3-84-60.6-130.6l12-0.1c0.2 43.3 19.9 85.6 57 122.1C218.7 666.2 338.5 707 470 707h5c210.5-1.6 381.2-108.3 380.6-237.8l12-0.1c0.2 33.7-10.3 66.5-31 97.3-19.8 29.5-48.3 56.1-84.5 78.9-73.9 46.6-172.3 72.8-277 73.6-1.6 0.1-3.3 0.1-4.9 0.1z" fill="#d9b05b" p-id="4412"></path><path d="M182.8 477.4c-0.2-2.8-0.3-5.6-0.3-8.4 0-63.8 51-115.7 113.8-115.7C359 353.3 410 405.2 410 469h-12c0-57.2-45.6-103.7-101.8-103.7S194.5 411.8 194.5 469c0 2.5 0.1 5.1 0.3 7.6l-12 0.8zM801.979 464.032l69-0.444 0.077 12-69 0.444z" fill="#d9b05b" p-id="4413"></path><path d="M76 480v-12l438.7-3 287.3-2v12l-287.2 2zM268.3 414.8c18.4 5 38.5 1.5 53.8-9.9 6.1-4.6 0.1-15-6.1-10.4-12.9 9.6-29 12.9-44.5 8.6-7.5-1.9-10.7 9.6-3.2 11.7z" fill="#d9b05b" p-id="4414"></path><path d="M307.4 406.5c-6.9-36.2-33.1-66.6-67.3-79.8-7.2-2.8-10.3 8.8-3.2 11.6 30.4 11.7 52.9 39.5 59 71.4 1.3 7.6 12.9 4.4 11.5-3.2zM335.9 713.1c0.9 13.2 1.8 26.4 2.6 39.6 0.4 6.2 0.7 12.4 1.2 18.6 0.5 5.3 1.9 10.5 7.1 13 4.3 2.1 10 1.3 14.6 1.4 7 0.1 13.9 0.2 20.9 0.2 12.9 0.1 25.8 0.1 38.8 0 26.5-0.2 53-0.7 79.5-1.7 12.9-0.5 25.8-1 38.7-1.6 12.4-0.6 25.5-0.2 37.8-2.2 14-2.3 12-19 12.1-29.7 0.2-14.9-0.6-29.8-2.3-44.6-0.8-7.6-12.8-7.7-12 0 1.2 11.3 2 22.6 2.2 33.9 0.1 5.5 0.1 11-0.1 16.5-0.1 2.6-0.1 5.2-0.3 7.8-0.2 2.6 0.1 4-2.7 4.4-5.4 0.9-11.4 0.7-16.9 1-6 0.3-11.9 0.6-17.9 0.9-11.6 0.6-23.2 1.1-34.8 1.5-46 1.7-92.1 2.2-138.1 1.6-3.3 0-6.6-0.1-9.9-0.1-1.1 0-2.7 0.4-3.6-0.1-1-0.5-0.5 0.1-1.1-1.4-1-2.7-0.5-6.7-0.7-9.5-0.2-3.3-0.4-6.6-0.7-9.9-0.9-13.2-1.8-26.4-2.6-39.6-0.3-7.7-12.3-7.8-11.8 0zM577.9 475.8c-12.9-23.3-19.8-50.2-19.8-77.8 0-81 58.6-146.9 130.6-146.9S819.3 317 819.3 398c0 24.4-5.4 48.5-15.7 69.8l-10.8-5.2c9.5-19.7 14.5-42 14.5-64.6 0-74.4-53.2-134.9-118.6-134.9S570.1 323.6 570.1 398c0 25.6 6.3 50.4 18.3 71.9l-10.5 5.9z" fill="#d9b05b" p-id="4415"></path><path d="M666.1 257.3c-18.4-32.4-45.7-59.2-78.5-76.9-6.8-3.7-12.9 6.7-6.1 10.4 31.1 16.7 56.8 41.9 74.2 72.6 3.9 6.7 14.3 0.6 10.4-6.1z" fill="#d9b05b" p-id="4416"></path><path d="M668.7 256.7c0.2-34.5 29.1-61.6 63.5-60.1 7.7 0.3 7.7-11.7 0-12-40.9-1.8-75.2 31.3-75.5 72.1 0 7.7 12 7.7 12 0zM639.2 310.4c16.6-1.3 32.8-4.7 48.4-10.5 7.2-2.7 4.1-14.3-3.2-11.6-14.6 5.4-29.7 8.9-45.2 10.1-7.7 0.6-7.8 12.6 0 12z" fill="#d9b05b" p-id="4417"></path><path d="M655.1 269.9c1.8 8.1 5.2 15.7 10.3 22.3 3.7 4.9 13.4 2.4 11-4.6-2.7-7.6-5.3-15.2-8-22.8-2.5-7.2-14.1-4.1-11.6 3.2 2.7 7.6 5.3 15.2 8 22.8 3.7-1.5 7.3-3.1 11-4.6-4.5-5.9-7.4-12.2-9-19.5-1.8-7.6-13.4-4.4-11.7 3.2zM420.5 328.4c48.4 48.6 96.9 97.2 145.3 145.9 5.5 5.5 13.9-3 8.5-8.5-48.4-48.6-96.9-97.2-145.3-145.9-5.5-5.5-14 3-8.5 8.5z" fill="#d9b05b" p-id="4418"></path><path d="M422.1 319.8c-20.6 19.1-22.9 54.1-19.6 80.3 3.6 28 15.3 54.4 34.2 75.4 5.2 5.8 13.6-2.8 8.5-8.5-16.7-18.6-27.3-42.3-30.7-67-1.7-12.3-1.6-25.1 0.4-37.3 2.2-12.6 6-25.5 15.6-34.5 5.8-5.2-2.7-13.7-8.4-8.4zM454.5 323.4c36.1 36.2 72.2 72.4 108.2 108.7 5.5 5.5 13.9-3 8.5-8.5-36.1-36.2-72.2-72.4-108.2-108.7-5.5-5.5-14 3-8.5 8.5z" fill="#d9b05b" p-id="4419"></path><path d="M456.1 314.8c-8.1 9.2-11.8 20.8-13.9 32.6-1.4 7.6 10.2 10.8 11.6 3.2 1.7-9.6 4.2-19.8 10.8-27.4 5.1-5.7-3.4-14.3-8.5-8.4z" fill="#d9b05b" p-id="4420"></path></svg>