<?xml version="1.0" standalone="no"?><!DOCTYPE svg PUBLIC "-//W3C//DTD SVG 1.1//EN" "http://www.w3.org/Graphics/SVG/1.1/DTD/svg11.dtd"><svg t="1594881513161" class="icon" viewBox="0 0 1024 1024" version="1.1" xmlns="http://www.w3.org/2000/svg" p-id="2864" xmlns:xlink="http://www.w3.org/1999/xlink" width="200" height="200"><defs><style type="text/css"></style></defs><path d="M813.9 255.2H581.3c-10.2-46.4-51.6-81.2-101-81.2H301c-49.6 0-91.1 35.1-101.1 81.7-57.6 5.2-103 53.7-103 112.6v368.5c0 62.4 50.8 113.1 113.1 113.1h603.9c62.4 0 113.1-50.8 113.1-113.1V368.4c0.1-62.4-50.7-113.2-113.1-113.2zM301 222.7h179.3c22.3 0 41.4 13.4 49.9 32.5H251.1c8.5-19.1 27.6-32.5 49.9-32.5z m577.4 514.2c0 35.6-28.9 64.5-64.5 64.5H210.1c-35.5 0-64.5-28.9-64.5-64.5V368.4c0-35.5 28.9-64.5 64.5-64.5H814c35.5 0 64.5 28.9 64.5 64.5v368.5z m0 0" p-id="2865"></path><path d="M446.9 338.8c-117.9 0-213.8 95.9-213.8 213.8S329 766.4 446.9 766.4s213.8-95.9 213.8-213.8-95.9-213.8-213.8-213.8z m0 378.9c-91 0-165.1-74-165.1-165.1s74.1-165.1 165.1-165.1S612 461.6 612 552.6c0 91.1-74.1 165.1-165.1 165.1z m0 0M751.1 403.9c0 19.6 15.9 35.5 35.5 35.5s35.5-15.9 35.5-35.5-15.9-35.5-35.5-35.5-35.5 15.9-35.5 35.5z m0 0" p-id="2866"></path></svg>