<?xml version="1.0" standalone="no"?><!DOCTYPE svg PUBLIC "-//W3C//DTD SVG 1.1//EN" "http://www.w3.org/Graphics/SVG/1.1/DTD/svg11.dtd"><svg t="1594873415814" class="icon" viewBox="0 0 1024 1024" version="1.1" xmlns="http://www.w3.org/2000/svg" p-id="2015" xmlns:xlink="http://www.w3.org/1999/xlink" width="200" height="200"><defs><style type="text/css"></style></defs><path d="M512 959.6c-247.4 0-448-200.6-448-448s200.6-448 448-448 448 200.6 448 448-200.6 448-448 448z m0-846.3c-219.9 0-398.2 178.3-398.2 398.2 0 219.9 178.3 398.2 398.2 398.2 219.9 0 398.2-178.3 398.2-398.2 0-219.9-178.2-398.2-398.2-398.2z m-29.6 536.9c-0.8 1.2-1.3 2.5-2.4 3.6-4.7 4.7-11.2 7.2-17.8 7-6.6 0.2-13.1-2.3-17.8-7-1-1.1-1.5-2.4-2.4-3.6l-122-122c-9-9.6-8.8-24.6 0.5-33.8 9.3-9.3 24.3-9.5 33.8-0.5l107.9 107.9 232.3-232.3c9.5-9.5 24.9-9.5 34.4 0s9.5 24.9 0 34.4L482.4 650.2z m0 0" fill="" p-id="2016"></path></svg>