<?xml version="1.0" standalone="no"?><!DOCTYPE svg PUBLIC "-//W3C//DTD SVG 1.1//EN" "http://www.w3.org/Graphics/SVG/1.1/DTD/svg11.dtd"><svg t="1594718189915" class="icon" viewBox="0 0 1024 1024" version="1.1" xmlns="http://www.w3.org/2000/svg" p-id="4306" xmlns:xlink="http://www.w3.org/1999/xlink" width="200" height="200"><defs><style type="text/css"></style></defs><path d="M179.2 147.2h179.2c19.2 0 38.4-19.2 38.4-38.4s-19.2-38.4-38.4-38.4H179.2c-19.2 0-38.4 19.2-38.4 38.4s19.2 38.4 38.4 38.4z m480 352h281.6c38.4 0 70.4-32 70.4-70.4V262.4c0-38.4-32-70.4-70.4-70.4H659.2c-38.4 0-70.4 32-70.4 70.4v166.4c-6.4 38.4 25.6 70.4 70.4 70.4zM972.8 640h12.8c19.2 0 38.4-19.2 38.4-38.4s-19.2-38.4-38.4-38.4h-640V198.4c0-19.2-19.2-38.4-38.4-38.4H192c-12.8 0-32 6.4-38.4 25.6L38.4 480c0 6.4-38.4 89.6 6.4 172.8C19.2 678.4 0 723.2 0 768c0 102.4 83.2 179.2 179.2 179.2 96 0 172.8-76.8 179.2-172.8h294.4c6.4 96 83.2 172.8 179.2 172.8 102.4 0 179.2-83.2 179.2-179.2 12.8-51.2-6.4-96-38.4-128zM179.2 870.4c-57.6 0-102.4-44.8-102.4-102.4 0-57.6 44.8-102.4 102.4-102.4S281.6 710.4 281.6 768c0 57.6-44.8 102.4-102.4 102.4z m665.6 0c-57.6 0-102.4-44.8-102.4-102.4 0-57.6 44.8-102.4 102.4-102.4S947.2 710.4 947.2 768c-6.4 57.6-51.2 102.4-102.4 102.4z" p-id="4307"></path></svg>