<?xml version="1.0" standalone="no"?><!DOCTYPE svg PUBLIC "-//W3C//DTD SVG 1.1//EN" "http://www.w3.org/Graphics/SVG/1.1/DTD/svg11.dtd"><svg t="1594881595724" class="icon" viewBox="0 0 1224 1024" version="1.1" xmlns="http://www.w3.org/2000/svg" p-id="5959" xmlns:xlink="http://www.w3.org/1999/xlink" width="239.0625" height="200"><defs><style type="text/css"></style></defs><path d="M1109.769 487.392c3.26-6.241 4.93-12.974 4.854-19.66a42.086 42.086 0 0 0-21.776-37.05 40.54 40.54 0 0 0-20.52-5.35 42.24 42.24 0 0 0-36.005 19.974c-32.01-12.14-65.797-17.94-99.814-17.86-77.097 0-155.842 29.267-224.61 81.64l16.969 38.091a63.565 63.565 0 0 1 12.35-1.254c9.738 0.051 18.667 2.268 26.839 6.815 12.585 7.05 21.437 18.667 26.66 34.411l6.082 19.088 19.482-4.91a66.458 66.458 0 0 1 16.502-2.033c9.66 0 18.533 2.09 26.73 6.712 12.406 6.943 21.31 18.642 26.558 34.437l6.057 19.093 19.43-4.91a52.419 52.419 0 0 1 12.708-1.54c5.248 0 10.864 0.961 16.921 2.871l-140.721 256.18c-48.978-9.53-103.516-16.242-161.454-16.299-38.743 0.057-76 3.057-111.145 7.834L456.04 378.89c14.07 1.849 24.463 6.682 35.896 15.662L508.569 408l13.573-16.604c17.204-21.125 38.667-34.416 63.08-37.831a79.939 79.939 0 0 1 12.4-0.917c20.316 0 40.335 6.943 58.925 19.922l16.37 11.484 12.584-15.477c17.203-21.146 38.666-34.443 63.283-37.909a86.79 86.79 0 0 1 12.298-0.834c24.152 0 48.22 9.815 69.423 28.195l32.557-26.839c-96.501-167.95-253.957-277.083-424.708-277.74v-0.65c0-2.297-0.127-4.617-0.47-7.177A52.992 52.992 0 0 0 385.414 0c-2.586 0-5.064 0.133-7.573 0.527-26.265 3.733-45.48 26.21-45.557 52.424 0 2.586 0.184 5.146 0.573 7.593 0.246 2.13 0.655 4.23 1.224 6.292C172.161 110.438 50.417 252.599 0.002 434.313l36.475 20.178c16.368-17.986 36.239-29.368 58.772-32.507a89.062 89.062 0 0 1 12.273-0.834c20.31 0 40.417 6.896 58.977 19.845l16.368 11.515 12.533-15.534c17.152-21.07 38.615-34.304 63.212-37.78 4.045-0.55 8.095-0.917 12.19-0.917 20.286 0.082 40.47 6.942 59.029 19.973l16.369 11.515 12.61-15.565c12.508-15.268 28.903-26.834 54.334-32.635l76.446 529.038c-133.335 24.826-226.124 72.401-227.379 72.918a21.473 21.473 0 0 0-11.07 24.095 21.417 21.417 0 0 0 20.808 16.369h742.209a21.356 21.356 0 0 0 20.803-16.369 21.376 21.376 0 0 0-11.065-24.095c-1.07-0.47-70.707-36.162-175.79-61.824l132.321-240.771c1.88 3.344 3.21 6.943 4.49 11.387l5.141 20.808 20.833-5.12a68.562 68.562 0 0 1 16.784-2.115c9.61 0 18.41 2.166 26.45 6.66 12.528 7.103 21.514 18.72 26.66 34.438l6.082 18.93 19.318-4.65a68.54 68.54 0 0 1 16.737-2.058c9.61 0 18.483 2.166 26.686 6.656 14.407 8.177 24.304 22.615 28.538 42.3l42.214-1.7c2.376-19.035 3.656-37.856 3.656-56.493 0.076-105.22-39.01-202.188-114.247-262.578zM383.955 42.926c0.706-0.128 1.095-0.128 1.49-0.128h0.08c4.83 0 9.294 3.733 9.944 8.873 0.052 0.26 0.128 0.625 0.128 1.152 0 2.166-1.095 4.88-3.86 7.465l-4.961 4.465-5.986-3.21c-3.68-2.064-5.14-4.23-5.534-7.076-0.128-0.625-0.128-1.152-0.128-1.542 0.025-4.858 3.758-9.374 8.827-10zM338.55 373.299c-20.807-11.305-43.81-17.884-67.7-17.782-5.98 0-12.064 0.364-18.249 1.224-30.08 4.23-56.576 18.622-77.67 39.24-20.756-11.25-43.627-17.67-67.414-17.67-5.976 0-12.063 0.39-18.3 1.28a130.703 130.703 0 0 0-28.333 7.21c59.294-151.69 173.075-260.04 313.614-285.316l13.68-2.504 19.713-1.618a378.449 378.449 0 0 1 29.22-1.152c130.594-0.128 256.382 72.192 346.98 192.782a138.716 138.716 0 0 0-23.05-1.986c-6.01 0-12.12 0.394-18.33 1.28-30.05 4.26-56.657 18.642-77.751 39.24-20.68-11.224-43.526-17.726-67.39-17.726-6.03 0-12.19 0.471-18.432 1.28-29.686 4.101-55.977 18.38-76.968 38.692-17.1-9.662-36.756-14.853-58.327-14.669a179.865 179.865 0 0 0-25.508 1.93c-33.29 4.516-60.021 17.884-79.785 36.265z m562.712 607.86H384.79a932.067 932.067 0 0 1 110.986-28.068l0.26 2.038 42.4-6.062-0.446-2.893c33.316-4.547 68.587-7.44 105.031-7.388 99.37 0 190.126 20.756 255.784 41.615 0.891 0.261 1.705 0.466 2.458 0.758z m269.179-252.63c-14.807-8.3-31.145-12.165-47.335-12.165h-0.184c-2.847 0-5.663 0.107-8.484 0.338-8.745-16.994-21.852-31.775-39.367-41.564-14.782-8.33-31.227-12.084-47.391-12.084-2.714 0-5.35 0.052-8.07 0.23-8.191-15.794-21.949-29.163-39.94-38.768-17.204-9.66-34.75-14.254-51.38-14.198-1.57 0-2.949 0-4.439 0.103-8.693-17.152-21.908-32.005-39.53-41.826a97.213 97.213 0 0 0-47.54-12.083c-2.8 0-5.642 0.108-8.458 0.287-8.77-16.917-21.831-31.647-39.352-41.405-1.638-0.89-3.307-1.782-4.987-2.56 49.736-27.965 102.343-42.61 152.524-42.61 37.653 0 73.892 8.173 107.387 25.115l7.86 3.968 10.782 6.866c72.709 46.11 114.477 130.415 118.317 229.02a98.123 98.123 0 0 0-10.414-6.665z" p-id="5960"></path></svg>