<?xml version="1.0" standalone="no"?><!DOCTYPE svg PUBLIC "-//W3C//DTD SVG 1.1//EN" "http://www.w3.org/Graphics/SVG/1.1/DTD/svg11.dtd"><svg t="1594881620707" class="icon" viewBox="0 0 1024 1024" version="1.1" xmlns="http://www.w3.org/2000/svg" p-id="6754" xmlns:xlink="http://www.w3.org/1999/xlink" width="200" height="200"><defs><style type="text/css"></style></defs><path d="M764.787712 952.32512 317.394944 952.32512c-30.887936 0-55.923712-25.035776-55.923712-55.923712L261.471232 169.389056c0-30.887936 25.035776-55.923712 55.923712-55.923712l447.392768 0c30.887936 0 55.923712 25.035776 55.923712 55.923712l0 727.012352C820.711424 927.289344 795.675648 952.32512 764.787712 952.32512L764.787712 952.32512zM541.090816 896.401408c20.588544 0 37.284864-16.692224 37.284864-37.279744 0-20.59264-16.69632-37.28384-37.284864-37.28384-20.58752 0-37.28384 16.6912-37.28384 37.28384C503.806976 879.709184 520.503296 896.401408 541.090816 896.401408L541.090816 896.401408zM587.695104 160.069632c0-5.144576-4.175872-9.320448-9.319424-9.320448l-93.208576 0c-5.143552 0-9.319424 4.175872-9.319424 9.320448l0 9.319424c0 5.144576 4.175872 9.320448 9.319424 9.320448l93.208576 0c5.143552 0 9.319424-4.175872 9.319424-9.320448L587.695104 160.069632 587.695104 160.069632zM764.787712 206.672896 317.394944 206.672896l0 577.880064 447.392768 0L764.787712 206.672896 764.787712 206.672896zM764.787712 206.672896" p-id="6755"></path></svg>