<?xml version="1.0" standalone="no"?><!DOCTYPE svg PUBLIC "-//W3C//DTD SVG 1.1//EN" "http://www.w3.org/Graphics/SVG/1.1/DTD/svg11.dtd"><svg t="1594881577015" class="icon" viewBox="0 0 1024 1024" version="1.1" xmlns="http://www.w3.org/2000/svg" p-id="5192" xmlns:xlink="http://www.w3.org/1999/xlink" width="200" height="200"><defs><style type="text/css"></style></defs><path d="M942.407704 458.639698l-70.88135 0-70.137407-200.205764L227.40422 258.433934l-70.137407 200.205764L86.384439 458.639698c-10.92891 0-22.892383 2.691295-22.892383 13.625322l0 54.428633c0 10.934027 11.963473 25.913183 22.892383 25.913183l35.817764 0-14.114462 23.569812 0 272.655843 28.668946 0 0 79.421864c0 13.240559 14.795984 30.466895 28.040636 30.466895l69.77618 0c13.244652 0 20.605294-17.226337 20.605294-30.466895l0-79.421864 513.737574 0 0 79.421864c0 13.240559 14.123672 30.466895 27.363208 30.466895l67.734684 0c13.239536 0 19.682271-17.226337 19.682271-30.466895l0-79.421864 30.259164 0L913.955698 576.175625l-7.351432-23.569812L942.417937 552.605813c10.934027 0 17.724687-14.979156 17.724687-25.913183l0-54.428633c0-10.934027-6.79066-13.625322-17.724687-13.625322L942.407704 458.638675zM263.301801 304.217676l498.735905 0 89.585341 278.647301L171.484629 582.864978l91.813079-278.647301L263.301801 304.217676zM259.359003 764.203022c-30.060643 0-54.432727-24.365944-54.432727-54.42761s24.365944-54.432727 54.432727-54.432727c30.060643 0 54.428633 24.37106 54.428633 54.432727S289.420669 764.203022 259.359003 764.203022L259.359003 764.203022zM769.012561 764.203022c-30.060643 0-54.42761-24.365944-54.42761-54.42761s24.365944-54.432727 54.42761-54.432727c30.065759 0 54.43375 24.37106 54.43375 54.432727S799.078321 764.203022 769.012561 764.203022L769.012561 764.203022zM769.012561 764.203022" p-id="5193"></path></svg>