<?xml version="1.0" standalone="no"?><!DOCTYPE svg PUBLIC "-//W3C//DTD SVG 1.1//EN" "http://www.w3.org/Graphics/SVG/1.1/DTD/svg11.dtd"><svg t="1594955873508" class="icon" viewBox="0 0 1024 1024" version="1.1" xmlns="http://www.w3.org/2000/svg" p-id="7594" xmlns:xlink="http://www.w3.org/1999/xlink" width="200" height="200"><defs><style type="text/css"></style></defs><path d="M629.828592 910.009829c0-26.872021-21.074991-48.507784-47.504944-49.954739l0-0.227174L355.296005 859.827917c-27.767414 0-50.175773 22.414499-50.175773 50.181913 0 27.762297 22.409382 50.175773 50.175773 50.175773l226.921219 0 0-0.221034C608.753601 958.512497 629.828592 936.768263 629.828592 910.009829L629.828592 910.009829 629.828592 910.009829zM859.20063 350.574471 582.771857 74.589812c-13.826913-14.161534-36.576033-14.383592-50.737568-0.556679L165.400051 432.642604c-14.162558 13.827937-14.497179 36.576033-0.561795 50.737568l122.55115 126.114303 0-2.564405 168.93455 146.520051 32.446993 0c41.033555-36.127825 102.696963-89.985454 125.110439-107.272165l6.804986-6.800893c0-0.221034 0.10847-0.334621 0.10847-0.556679-5.241374-8.807596-16.278755-27.875884-26.090215-48.281633L491.89101 694.01752c-11.372002 11.037381-29.100782 11.264555-39.803541 0.334621L237.877759 474.567459c-10.594289-10.923794-10.033517-28.653597 1.225921-39.696094l292.931632-286.687418c11.376095-11.037381 29.106922-11.150968 39.809681-0.334621l214.317157 211.646328c10.594289 10.923794 10.038634 28.653597-1.225921 39.696094l-84.74408 85.300758c5.126764 10.929934 14.161534 30.444383 23.972994 51.40681l134.478807-134.591371C872.805486 387.481032 873.027543 364.736005 859.20063 350.574471L859.20063 350.574471 859.20063 350.574471zM305.119209 645.735887l0 169.71124c0 0 11.819187 29.554106 57.538461 29.554106l215.877699 0c0 0 14.604626 2.450818 27.206642-9.482979 31.334659-29.54899 126.113279-120.650871 142.17407-136.707568 19.175735-19.176758 8.807596-53.18941 0-70.804602-8.812713-17.729803-67.910693-144.625912-67.910693-144.625912s-13.266142-26.541493-50.177819-10.373255c-36.909631 16.282848-39.807634 33.900088-35.45756 64.900126 4.457522 30.995945 44.267203 95.89607 44.267203 95.89607s1.451048 16.83748-8.80862 22.413476c-10.373255 5.574972-134.25675 114.742301-134.25675 114.742301l-45.718251 0L305.119209 645.735887 305.119209 645.735887 305.119209 645.735887zM300.212456 443.793572l169.603793-44.046169-49.511647-49.507554 23.638373-23.639396 57.652048 57.646931 32.56058-32.56058-57.652048-57.646931 23.86657-23.865547 57.645908 57.650001 47.39238-47.391357 29.662577 29.662577-47.39238 47.391357 59.767222 59.767222-23.860431 23.861454-59.767222-59.767222-32.56058 32.56058 59.767222 59.766199-23.639396 23.639396-50.958602-50.958602-44.60694 169.047114-33.450856-33.450856c23.974018-82.07325 40.030715-133.36238 47.948035-153.881716l-0.556679-0.555655c-7.916297 3.674693-25.533536 9.697873-52.853765 18.063401l-101.136422 29.992081L300.212456 443.793572 300.212456 443.793572 300.212456 443.793572zM300.212456 443.793572" p-id="7595"></path></svg>