<?xml version="1.0" standalone="no"?><!DOCTYPE svg PUBLIC "-//W3C//DTD SVG 1.1//EN" "http://www.w3.org/Graphics/SVG/1.1/DTD/svg11.dtd"><svg t="1594954077141" class="icon" viewBox="0 0 1024 1024" version="1.1" xmlns="http://www.w3.org/2000/svg" p-id="6199" xmlns:xlink="http://www.w3.org/1999/xlink" width="200" height="200"><defs><style type="text/css"></style></defs><path d="M911.865 729.518a402.01 402.01 0 0 0 2.02-40.172c0-196.995-142.686-361.28-330.122-394.926 14.122-16.414 22.67-37.754 22.67-61.055 0-51.687-42.05-93.738-93.737-93.738s-93.74 42.05-93.74 93.738c0 23.302 8.55 44.642 22.671 61.057-187.438 33.651-330.121 197.965-330.121 394.972 0 13.694 0.697 27.216 2.096 40.932-28.267 12.362-48.079 40.583-48.079 73.356 0 44.128 35.902 80.03 80.031 80.03h736.282c44.128 0 80.03-35.902 80.03-80.03 0-33.512-20.712-62.26-50-74.164z m-399.17-549.876c29.624 0 53.722 24.1 53.722 53.723 0 29.623-24.098 53.723-53.721 53.723s-53.724-24.1-53.724-53.723c0-29.623 24.101-53.723 53.724-53.723z m0 148.53c199.153 0 361.174 162.1 361.174 361.28 0 11.415-0.532 22.111-1.61 34.2H153.131c-1.079-12.088-1.61-22.746-1.61-34.147 0-199.194 162.022-361.333 361.175-361.333z m369.141 515.525H145.554c-22.064 0-40.015-17.95-40.015-40.016 0-20.293 15.187-37.094 34.789-39.663h746.733c19.604 2.57 34.79 19.37 34.79 39.663 0 22.066-17.95 40.016-40.015 40.016z" fill="" p-id="6200"></path><path d="M276.605 532.578c11.05 0 20.007-8.958 20.007-20.008 0-11.235 14.694-34.618 46.956-59.415 31.281-24.043 62.46-36.621 77.092-36.621 11.05 0 20.007-8.957 20.007-20.008s-8.958-20.008-20.007-20.008c-31.738 0-73.23 23.2-101.476 44.91-18.818 14.464-62.587 52.297-62.587 91.142 0 11.05 8.957 20.008 20.008 20.008z" fill="" p-id="6201"></path></svg>