<?xml version="1.0" standalone="no"?><!DOCTYPE svg PUBLIC "-//W3C//DTD SVG 1.1//EN" "http://www.w3.org/Graphics/SVG/1.1/DTD/svg11.dtd"><svg t="1594718152546" class="icon" viewBox="0 0 1024 1024" version="1.1" xmlns="http://www.w3.org/2000/svg" p-id="2670" xmlns:xlink="http://www.w3.org/1999/xlink" width="200" height="200"><defs><style type="text/css"></style></defs><path d="M374.928706 65.012403c0-36.825124-30.687603-66.489807-68.024187-64.955426-35.290744 1.53438-61.886666 33.756363-61.886666 69.047107v55.749145c0 3.06876 2.04584 5.114601 5.114601 5.114601h119.681652c3.06876 0 5.114601-2.04584 5.1146-5.114601V65.012403z m64.955427 228.111183H380.043307c-3.06876 0-5.114601-2.04584-5.114601-5.1146V168.327334c0-3.06876-2.04584-5.114601-5.1146-5.114601H250.132454c-3.06876 0-5.114601 2.04584-5.114601 5.114601v119.681652c0 3.06876-2.04584 5.114601-5.1146 5.1146H180.573887c-36.313664 0-65.466887 29.153223-65.466887 65.466887v583.575919c0 36.313664 29.153223 65.466887 65.466887 65.466886h258.798786c36.313664 0 65.466887-29.153223 65.466886-65.466886V358.079013c0-35.802204-29.153223-64.955427-64.955426-64.955427z m0 584.598839c0 35.802204-29.153223 64.955427-64.955427 64.955427H245.529313c-36.313664 0-65.466887-29.153223-65.466887-65.466887v-323.754212c0-36.313664 29.153223-65.466887 65.466887-65.466887h128.887933c36.313664 0 65.466887 29.153223 65.466887 65.466887v324.265672z m469.008867-227.088263v-13.809421c0-7.160441-1.02292-29.664683-2.04584-40.916804 0-2.5573-2.5573-4.60314-5.114601-4.603141h-324.777132c-2.5573 0-5.114601 2.04584-5.114601 4.603141-1.02292 11.252121-2.04584 33.244903-2.04584 40.916804v13.809421c0 85.925289 60.863746 156.506776 141.162974 170.827658 2.5573 0.51146 4.09168 2.5573 4.09168 5.1146v142.185894c0 3.06876-2.04584 5.114601-5.1146 5.114601h-67.512727c-13.297961 0-24.038622 11.252121-24.038622 25.061542s10.740661 25.061543 24.038622 25.061543h193.84336c13.297961 0 24.038622-11.252121 24.038622-25.061543s-10.740661-25.061543-24.038622-25.061542h-67.512727c-3.06876 0-5.114601-2.04584-5.114601-5.114601v-142.185894c0-2.5573 1.53438-4.60314 4.091681-5.1146 79.787768-14.320881 141.162974-84.902369 141.162974-170.827658z" p-id="2671"></path></svg>