<?xml version="1.0" standalone="no"?><!DOCTYPE svg PUBLIC "-//W3C//DTD SVG 1.1//EN" "http://www.w3.org/Graphics/SVG/1.1/DTD/svg11.dtd"><svg t="1594954309858" class="icon" viewBox="0 0 1024 1024" version="1.1" xmlns="http://www.w3.org/2000/svg" p-id="10418" xmlns:xlink="http://www.w3.org/1999/xlink" width="200" height="200"><defs><style type="text/css"></style></defs><path d="M359.011952 589.513944c6.119522-108.111554 63.23506-150.948207 87.713148-234.581673-40.796813-16.318725-73.434263-24.478088-87.713148-69.354582 50.996016-32.63745 85.673307-77.513944 128.50996-118.310757 0-71.394422-14.278884-101.992032-20.398406-157.067729 14.278884-6.119522 16.318725-6.119522 38.756972-10.199203 10.199203 14.278884 42.836653 24.478088 48.956175 38.756972v87.713148c12.239044 24.478088 34.677291 6.119522 59.155379 20.398406 16.318725 10.199203 26.517928 38.756972 40.796813 50.996016v10.199203h-10.199204c-22.438247 61.195219-79.553785 48.956175-87.713147 128.50996 18.358566 16.318725 14.278884 8.159363 20.398406 38.756972-36.717131 20.398406-73.434263 40.796813-118.310757 59.155379v10.199203h10.199204c12.239044 8.159363 16.318725 8.159363 38.756972 10.199203 30.59761-30.59761 71.394422-55.075697 128.50996-59.155378v10.199203h10.199203c-40.796813 67.314741-71.394422 126.47012-118.310757 177.466135-16.318725-6.119522-10.199203-2.039841-20.398406-10.199203-22.438247-12.239044-18.358566-16.318725-28.557769-38.756972h-20.398407c-22.438247 26.517928-57.115538 48.956175-99.952191 55.075697z m-97.91235-18.358566h38.756972c36.717131 50.996016 73.434263 71.394422 167.266932 69.354582 32.63745-26.517928 93.832669-61.195219 136.669323-69.354582v38.756973c16.318725 6.119522 30.59761 8.159363 59.155378 10.199203 44.876494-28.557769 175.426295-26.517928 234.581673-28.557769 22.438247 32.63745 48.956175 38.756972 59.155379 87.713147-10.199203 4.079681-20.398406 6.119522-28.557769 10.199203-16.318725 10.199203-305.976096-4.079681-373.290837 10.199204-14.278884 24.478088-22.438247 22.438247-28.557769 59.155378 91.792829-2.039841 136.669323 8.159363 185.625498 38.756972v20.398407c-40.796813 12.239044-61.195219 38.756972-97.91235 59.155378v10.199203h10.199203c28.557769 28.557769 55.075697 34.677291 69.354582 77.513945h-10.199203c-36.717131 55.075697-112.191235 50.996016-206.023905 48.956175-6.119522-14.278884-6.119522-16.318725-10.199203-38.756972 16.318725-14.278884 93.832669-142.788845 97.912351-167.266933-32.63745 6.119522-65.2749 12.239044-97.912351 20.398407-32.63745 71.394422-63.23506 183.585657-157.067729 195.824701-6.119522-16.318725-8.159363-30.59761-10.199203-59.155378 40.796813-38.756972 144.828685-206.023904 157.067729-265.179283-16.318725 4.079681-32.63745 6.119522-48.956176 10.199203-14.278884 44.876494-44.876494 63.23506-69.354581 97.91235H328.414343V797.577689c-30.59761-28.557769-8.159363-57.115538-59.155379-69.354581C234.581673 762.900398 165.227092 777.179283 95.87251 777.179283c-16.318725-26.517928-24.478088-24.478088-28.557769-69.354582 65.2749-20.398406 126.47012-46.916335 216.223108-48.956175-8.159363-28.557769-14.278884-59.155378-22.438247-87.713148z" p-id="10419"></path></svg>