<?xml version="1.0" standalone="no"?><!DOCTYPE svg PUBLIC "-//W3C//DTD SVG 1.1//EN" "http://www.w3.org/Graphics/SVG/1.1/DTD/svg11.dtd"><svg t="1594954233409" class="icon" viewBox="0 0 1024 1024" version="1.1" xmlns="http://www.w3.org/2000/svg" p-id="8589" xmlns:xlink="http://www.w3.org/1999/xlink" width="200" height="200"><defs><style type="text/css"></style></defs><path d="M960 366.933333c0-140.8-115.2-260.266667-260.266667-260.266666s-260.266667 115.2-260.266666 260.266666v25.6c-128 0-204.8 21.333333-230.4 51.2-17.066667 17.066667-34.133333 51.2-51.2 110.933334-46.933333 4.266667-72.533333 17.066667-72.533334 42.666666 0 21.333333 12.8 34.133333 38.4 38.4-8.533333 17.066667-17.066667 34.133333-17.066666 51.2v153.6c0 25.6 21.333333 46.933333 46.933333 46.933334v21.333333c0 25.6 21.333333 46.933333 46.933333 46.933333h72.533334c25.6 0 46.933333-21.333333 46.933333-46.933333v-21.333333H512v21.333333c0 25.6 21.333333 46.933333 46.933333 46.933333h72.533334c25.6 0 46.933333-21.333333 46.933333-46.933333v-21.333333c25.6 0 42.666667-21.333333 42.666667-46.933334v-153.6c0-21.333333 0-42.666667-12.8-64 140.8-4.266667 251.733333-119.466667 251.733333-256zM281.6 908.8s-4.266667 4.266667 0 0l-76.8 4.266667c-4.266667 0-4.266667 0-4.266667-4.266667v-17.066667h81.066667v17.066667z m354.133333 0c0 4.266667 0 4.266667-4.266666 4.266667h-72.533334c-4.266667 0-4.266667 0-4.266666-4.266667v-21.333333h81.066666v21.333333z m42.666667-68.266667c0 4.266667 0 4.266667-4.266667 4.266667H157.866667c-4.266667 0-4.266667 0-4.266667-4.266667v-153.6c0-17.066667 8.533333-34.133333 25.6-51.2 4.266667-4.266667 8.533333-12.8 12.8-17.066666 21.333333-81.066667 42.666667-128 55.466667-140.8 21.333333-21.333333 98.133333-38.4 209.066666-38.4 25.6 93.866667 102.4 166.4 200.533334 183.466666 4.266667 4.266667 4.266667 12.8 12.8 17.066667 12.8 12.8 17.066667 21.333333 17.066666 51.2v149.333333h-8.533333z m21.333333-260.266666c-12.8 0-25.6 0-38.4-4.266667-98.133333-21.333333-174.933333-106.666667-174.933333-213.333333 0-119.466667 98.133333-217.6 217.6-217.6s217.6 98.133333 217.6 217.6-102.4 217.6-221.866667 217.6z" fill="#333333" p-id="8590"></path><path d="M870.4 285.866667L768 183.466667c-17.066667-17.066667-46.933333-17.066667-68.266667 0l-68.266666 68.266666c-17.066667 17.066667-17.066667 46.933333 0 68.266667l8.533333 8.533333-34.133333 34.133334-4.266667 25.6-25.6 8.533333-4.266667 29.866667-25.6 12.8 8.533334 72.533333 68.266666 8.533333 89.6-89.6 12.8-12.8 4.266667 4.266667c17.066667 17.066667 46.933333 17.066667 68.266667 0l68.266666-68.266667c21.333333-21.333333 21.333333-51.2 4.266667-68.266666z m-25.6 38.4l-68.266667 68.266666c-4.266667 4.266667-8.533333 4.266667-12.8 0l-29.866666-29.866666-119.466667 119.466666-21.333333-4.266666-4.266667-17.066667 17.066667-8.533333 8.533333-25.6 29.866667-8.533334 4.266666-38.4 51.2-51.2-38.4-38.4c-4.266667-4.266667-4.266667-8.533333 0-12.8L729.6 213.333333c4.266667-4.266667 8.533333-4.266667 12.8 0l102.4 102.4v8.533334zM320 695.466667c0-38.4-29.866667-68.266667-68.266667-68.266667s-68.266667 29.866667-68.266666 68.266667 29.866667 68.266667 68.266666 68.266666 68.266667-29.866667 68.266667-68.266666z m-68.266667 25.6c-12.8 0-25.6-12.8-25.6-25.6s12.8-25.6 25.6-25.6 25.6 12.8 25.6 25.6c0 17.066667-12.8 25.6-25.6 25.6zM584.533333 627.2c-38.4 0-68.266667 29.866667-68.266666 68.266667s29.866667 68.266667 68.266666 68.266666c38.4 0 68.266667-29.866667 68.266667-68.266666 0-38.4-29.866667-68.266667-68.266667-68.266667z m0 93.866667c-12.8 0-25.6-12.8-25.6-25.6s12.8-25.6 25.6-25.6 25.6 12.8 25.6 25.6c0 17.066667-12.8 25.6-25.6 25.6zM546.133333 780.8H298.666667c-12.8 0-21.333333 8.533333-21.333334 21.333333s8.533333 21.333333 21.333334 21.333334h247.466666c12.8 0 21.333333-8.533333 21.333334-21.333334s-8.533333-21.333333-21.333334-21.333333z" fill="#333333" p-id="8591"></path></svg>