<?xml version="1.0" standalone="no"?><!DOCTYPE svg PUBLIC "-//W3C//DTD SVG 1.1//EN" "http://www.w3.org/Graphics/SVG/1.1/DTD/svg11.dtd"><svg t="1594886331104" class="icon" viewBox="0 0 1024 1024" version="1.1" xmlns="http://www.w3.org/2000/svg" p-id="3346" xmlns:xlink="http://www.w3.org/1999/xlink" width="200" height="200"><defs><style type="text/css"></style></defs><path d="M624.081705 511.978511c0-61.885466-50.155307-112.030539-112.092961-112.030539-61.847603 0-112.047935 50.145074-112.047935 112.030539s50.200332 112.030539 112.047935 112.030539C573.926398 624.00905 624.081705 573.863976 624.081705 511.978511zM511.98772 680.06474c-92.816942 0-168.094416 75.237565-168.094416 168.045297L343.893304 960.181509l336.234881 0L680.128185 848.110037C680.128185 755.303328 604.849688 680.06474 511.98772 680.06474zM511.98772 231.903697c-154.732084 0-280.142351 125.382639-280.142351 280.075837 0 83.670631 37.446867 157.916613 95.615685 209.259978 21.714558-31.500435 51.577702-56.511062 86.135776-73.54297-42.006719-30.549783-69.702502-79.743182-69.702502-135.717008 0-92.807732 75.278497-168.045297 168.094416-168.045297 92.861968 0 168.140465 75.237565 168.140465 168.045297 0 55.973826-27.628244 105.167225-69.702502 135.717008 34.603099 17.031908 64.488757 42.042535 86.134753 73.54297 58.213843-51.343365 95.615685-125.589346 95.615685-209.259978C792.176121 357.286336 666.764829 231.903697 511.98772 231.903697zM511.98772 63.817468C264.461207 63.817468 63.704904 264.479627 63.704904 511.979534c0 165.812443 90.310865 310.211181 224.164433 387.723555l0-51.592029c0-26.705222 5.462408-51.922557 14.017248-75.650981-76.293617-61.636802-126.087697-154.775063-126.087697-260.480546 0-185.614441 150.555971-336.131527 336.189855-336.131527 185.67891 0 336.234881 150.517085 336.234881 336.131527 0 105.705484-49.771567 198.842721-126.087697 260.480546 8.55484 23.728424 14.017248 48.945759 14.017248 75.650981l0 51.592029c133.852544-77.511351 224.140896-221.910089 224.140896-387.723555C960.293049 264.479627 759.581772 63.817468 511.98772 63.817468z" p-id="3347"></path></svg>